<svg width="26" height="29" xmlns="http://www.w3.org/2000/svg"><g fill="#3F5D75" fill-rule="evenodd"><path d="M3.5 26a.5.5 0 01-.5-.5V12h20v7.879l-.121.121H19a2 2 0 00-2 2v3.879l-.121.121H3.5zm19-22H20V1.5a1.5 1.5 0 10-3 0V4H9V1.5a1.5 1.5 0 10-3 0V4H3.5C1.57 4 0 5.57 0 7.5v18C0 27.43 1.57 29 3.5 29h14c.397 0 .779-.158 1.061-.439l7-7c.281-.282.439-.663.439-1.061v-13C26 5.57 24.43 4 22.5 4z"/><path d="M8 14H6a1 1 0 00-1 1v2a1 1 0 001 1h2a1 1 0 001-1v-2a1 1 0 00-1-1m6 0h-2a1 1 0 00-1 1v2a1 1 0 001 1h2a1 1 0 001-1v-2a1 1 0 00-1-1m4 4h2a1 1 0 001-1v-2a1 1 0 00-1-1h-2a1 1 0 00-1 1v2a1 1 0 001 1M8 20H6a1 1 0 00-1 1v2a1 1 0 001 1h2a1 1 0 001-1v-2a1 1 0 00-1-1m6 0h-2a1 1 0 00-1 1v2a1 1 0 001 1h2a1 1 0 001-1v-2a1 1 0 00-1-1"/></g></svg>