<svg width="17" height="16" xmlns="http://www.w3.org/2000/svg"><g fill="#3F5D75" fill-rule="evenodd"><path d="M6.84 13.699v-7h8v7h-8zm8-9h-8a2 2 0 00-2 2v7a2 2 0 002 2h8c1.102 0 2-.897 2-2v-7c0-1.103-.898-2-2-2z"/><path d="M13.574 7.58c-.114-.058-.246-.019-.33.093l-2.522 3.367-1.273-1.206a.259.259 0 00-.232-.07.305.305 0 00-.202.157l-1.2 2.204a.446.446 0 00-.014.378c.05.118.154.193.264.193h5.4c.166 0 .3-.164.3-.367V7.921c0-.152-.076-.288-.191-.342m-3.031-4.88h-8l-.002 7h.002a1 1 0 010 2c-1.104 0-2-.897-2-2v-7c0-1.103.896-2 2-2h8c1.104 0 2 .897 2 2a1 1 0 11-2 0"/></g></svg>