<svg width="64" height="65" xmlns="http://www.w3.org/2000/svg" xmlns:xlink="http://www.w3.org/1999/xlink"><defs><filter x="-11.8%" y="-9.1%" width="123.5%" height="119.5%" filterUnits="objectBoundingBox" id="a"><feMorphology radius=".5" operator="dilate" in="SourceAlpha" result="shadowSpreadOuter1"/><feOffset dy="2" in="shadowSpreadOuter1" result="shadowOffsetOuter1"/><feGaussianBlur stdDeviation="10" in="shadowOffsetOuter1" result="shadowBlurOuter1"/><feComposite in="shadowBlurOuter1" in2="SourceAlpha" operator="out" result="shadowBlurOuter1"/><feColorMatrix values="0 0 0 0 0 0 0 0 0 0 0 0 0 0 0 0 0 0 0.122486888 0" in="shadowBlurOuter1"/></filter><rect id="b" x="0" y="0" width="268" height="323" rx="10"/><path id="c" d="M0 0h33.57v33.55H0z"/></defs><g fill="none" fill-rule="evenodd"><g transform="translate(-102 -43)"><use fill="#000" filter="url(#a)" xlink:href="#b"/><use stroke="#CBE8F8" fill="#FFF" xlink:href="#b"/></g><g transform="translate(16 1)"><mask id="d" fill="#fff"><use xlink:href="#c"/></mask><path d="M16.737 23.122c-3.513-.01-6.294-2.821-6.29-6.363.006-3.564 2.823-6.33 6.43-6.313 3.496.017 6.259 2.85 6.246 6.407-.014 3.502-2.841 6.277-6.386 6.269m14.036-10.08c-.47.048-1.195.08-1.392-.186-.463-.63-.717-1.43-.969-2.19-.05-.152.25-.472.447-.646 2.474-2.17 1.763-3.098-.033-4.944a16.97 16.97 0 00-1.663-1.491c-.857-.676-1.8-.607-2.609.13-.069.062-.132.131-.198.197-1.517 1.486-1.522 1.496-3.42.447-.196-.108-.373-.4-.404-.628-.063-.457-.018-.93-.02-1.395C20.506.883 19.949.184 18.508.069a21.625 21.625 0 00-3.444 0c-1.445.114-2 .809-2.005 2.263-.009 1.96-.306 2.348-2.219 2.78-.186.041-.467-.082-.627-.219-.422-.364-.79-.79-1.2-1.17-.807-.752-1.778-.855-2.597-.132A31.618 31.618 0 003.59 6.413c-.716.813-.605 1.795.132 2.605.063.068.13.132.195.199 1.475 1.502 1.488 1.54.44 3.419-.11.196-.4.354-.633.403a3.085 3.085 0 01-1.02.012C1.33 12.864.446 13.44 0 14.732v4.103c.445 1.375 1.418 1.83 2.8 1.692.469-.048 1.195-.078 1.39.187.462.631.7 1.435.973 2.19.043.12-.186.366-.328.518-.358.386-.75.742-1.11 1.13-.749.809-.852 1.784-.132 2.6.88.998 1.827 1.945 2.824 2.825.817.719 1.785.61 2.602-.133.069-.063.132-.13.199-.196 1.504-1.473 1.546-1.488 3.418-.442.197.11.369.401.404.631.063.425.018.868.019 1.303.003 1.571.559 2.268 2.098 2.365 1.203.076 2.426.06 3.624-.066 1.202-.129 1.712-.826 1.73-2.026.035-2.13.03-2.142 2.054-2.88.221-.081.598-.003.784.146.46.366.835.836 1.272 1.23.73.661 1.72.765 2.457.117a32.739 32.739 0 002.899-2.88c.72-.812.607-1.788-.134-2.602-.065-.07-.132-.133-.198-.2-1.464-1.492-1.481-1.561-.435-3.42.109-.194.402-.348.634-.396a3.09 3.09 0 011.022-.01c1.375.186 2.252-.4 2.704-1.683v-4.103c-.448-1.367-1.411-1.836-2.797-1.69" fill="#E4E4E4" mask="url(#d)"/></g><path d="M30.774 1a22.127 22.127 0 012.902-.038l.578.038.196.02c1.468.18 2.178 1.001 2.24 2.52l.005.273-.013.707c-.002.228.006.378.028.537a.5.5 0 00.147.252l.489.267c.708.378.912.436 1.093.381l.08-.03c.15-.07.338-.223.74-.609l.548-.537.044-.041c.984-.9 2.19-.968 3.223-.152.613.484 1.18.991 1.692 1.52 2.29 2.36 2.432 3.484.004 5.618a2.23 2.23 0 00-.175.173l-.073.085.092.274c.256.758.462 1.219.744 1.603l.235.01c.115.003.265.002.43-.007l.255-.02c1.583-.166 2.689.423 3.222 1.82l.069.196.025.156v4.061l-.029.166c-.51 1.445-1.539 2.147-3.01 2.018l-.203-.023a2.531 2.531 0 00-.838.005c-.126.026-.272.113-.292.148l-.338.601c-.446.807-.45.997.119 1.604l.778.796c.92 1.012 1.007 2.262.138 3.244a32.87 32.87 0 01-2.908 2.895c-.908.8-2.168.718-3.093-.12l-.133-.124a9.036 9.036 0 01-.217-.216l-.422-.435a4.858 4.858 0 00-.463-.424.517.517 0 00-.288-.065l-.575.213a6.8 6.8 0 00-.488.202l-.06.029c-.447.22-.533.325-.564 1.298l-.013.648c-.023 1.469-.74 2.342-2.156 2.494a21.763 21.763 0 01-3.664.067c-1.703-.107-2.48-.936-2.538-2.639l-.003-.267.011-.484a3.636 3.636 0 00-.025-.665.514.514 0 00-.148-.263l-.604-.34c-.807-.447-.986-.452-1.591.122l-.753.741-.044.042c-1.012.923-2.252 1.007-3.238.136a32.13 32.13 0 01-2.834-2.84c-.87-.99-.788-2.24.14-3.244l.271-.285.644-.644.298-.32.041-.049-.116-.33c-.27-.769-.452-1.175-.717-1.537l-.234-.009a6.199 6.199 0 00-.428.007l-.256.02c-1.59.16-2.697-.426-3.224-1.824l-.068-.196-.024-.153v-4.061l.027-.163c.499-1.45 1.532-2.15 3.007-2.02l.203.022c.321.044.605.044.837-.004.124-.027.271-.116.292-.154l.407-.731c.401-.75.352-.92-.281-1.573l-.655-.665-.031-.034c-.915-1.008-1-2.261-.136-3.244.88-1 1.832-1.953 2.836-2.84.991-.874 2.237-.792 3.238.14l.19.182.559.567c.175.176.288.282.42.398.068.057.193.104.183.107l.332-.078c1.342-.33 1.463-.595 1.47-2.188.008-1.72.772-2.604 2.441-2.738zm3.4.997a21.148 21.148 0 00-3.32 0c-1.081.087-1.478.49-1.517 1.577l-.012.583c-.07 1.841-.603 2.377-2.574 2.822-.348.079-.77-.08-1.056-.326l-.152-.135a8.548 8.548 0 01-.238-.229l-.694-.698-.114-.109c-.64-.596-1.307-.64-1.894-.122a30.774 30.774 0 00-2.746 2.75c-.479.544-.468 1.178.022 1.792l.125.145.46.471c1.314 1.383 1.275 1.754.211 3.665-.179.323-.574.564-.96.646-.287.06-.596.072-.926.045l-.251-.028c-1.045-.142-1.688.22-2.066 1.16l-.038.099v3.887l.034.094c.318.833.881 1.198 1.805 1.19l.19-.006.187-.015c.915-.094 1.506-.05 1.826.386.306.418.508.844.765 1.55l.265.749c.094.267.012.465-.16.702a2.42 2.42 0 01-.186.225l-.21.226-.14.144-.708.71-.12.128c-.594.643-.639 1.318-.123 1.905.85.967 1.77 1.89 2.746 2.752.546.482 1.166.473 1.778-.02l.152-.133.154-.155c1.65-1.62 1.935-1.657 3.97-.517.331.185.592.603.65.987.037.25.044.45.036.82l-.011.542c.002 1.33.38 1.767 1.604 1.844a20.78 20.78 0 003.495-.064c.89-.095 1.247-.53 1.262-1.515l.002-.118c.028-1.742.155-2.196 1.016-2.65l.116-.06c.266-.13.522-.23 1.222-.485.385-.141.94-.034 1.258.224l.172.143c.084.072.167.15.263.245l.604.618c.091.092.162.16.241.231.566.513 1.255.557 1.762.111a31.87 31.87 0 002.819-2.806c.48-.543.468-1.172-.022-1.785l-.132-.15-.157-.158-.3-.312c-1.307-1.38-1.272-1.778-.21-3.667.18-.323.578-.56.964-.639.288-.059.6-.07.927-.044l.248.028c1.04.141 1.683-.222 2.069-1.164l.036-.097v-3.885l-.032-.093c-.323-.836-.886-1.203-1.804-1.192l-.189.007-.186.016c-.914.095-1.506.052-1.829-.384-.32-.435-.545-.91-.792-1.605l-.237-.702c-.128-.388.083-.71.475-1.073l.432-.388c1.598-1.472 1.437-2.007-.382-3.883a16.263 16.263 0 00-1.594-1.431c-.599-.473-1.213-.473-1.803-.003l-.156.135-.456.45c-.644.624-.89.816-1.234.934l-.075.025c-.605.184-.946.052-2.358-.73-.333-.183-.6-.608-.653-.99-.03-.21-.04-.394-.039-.657l.014-.791c-.005-1.155-.352-1.613-1.364-1.733l-.156-.016zm-1.567 9.275c3.732.019 6.681 3.05 6.667 6.844-.015 3.744-3.033 6.714-6.809 6.704-3.747-.01-6.715-3.018-6.71-6.798.004-3.806 3.014-6.768 6.852-6.75zm-.005 1c-3.287-.016-5.844 2.5-5.848 5.75-.003 3.231 2.52 5.79 5.714 5.798 3.226.008 5.794-2.518 5.806-5.708.012-3.246-2.496-5.824-5.672-5.84z" fill="#00BAFF" fill-rule="nonzero"/><path d="M59.326 17.065v36.537l-.26.143a55.538 55.538 0 01-51.738.953l-.538-.274-1.546-.8v-35.6h7.68v1h-6.68v33.992l1.005.52a54.538 54.538 0 0050.81-.382l.266-.145V18.064h-6.296v-1h7.297z" fill="#00BAFF" fill-rule="nonzero"/><path d="M1.43 53.398a4.332 4.332 0 014.327-4.337 4.332 4.332 0 014.327 4.337 4.331 4.331 0 01-4.327 4.336 4.331 4.331 0 01-4.326-4.336" fill="#FFF"/><path d="M5.757 48.561a4.832 4.832 0 00-4.826 4.837c0 2.67 2.16 4.836 4.826 4.836a4.831 4.831 0 004.827-4.836 4.832 4.832 0 00-4.827-4.837zm0 1a3.832 3.832 0 013.827 3.837 3.831 3.831 0 01-3.827 3.836 3.831 3.831 0 01-3.826-3.836 3.832 3.832 0 013.826-3.837z" fill="#00BAFF" fill-rule="nonzero"/><path d="M54.228 53.398a4.332 4.332 0 014.326-4.337 4.332 4.332 0 014.327 4.337 4.33 4.33 0 01-4.327 4.336 4.331 4.331 0 01-4.326-4.336" fill="#E4E4E4"/><path d="M58.554 48.561a4.832 4.832 0 00-4.826 4.837c0 2.67 2.16 4.836 4.826 4.836a4.83 4.83 0 004.827-4.836 4.832 4.832 0 00-4.827-4.837zm0 1a3.832 3.832 0 013.827 3.837 3.83 3.83 0 01-3.827 3.836 3.831 3.831 0 01-3.826-3.836 3.832 3.832 0 013.826-3.837z" fill="#00BAFF" fill-rule="nonzero"/><path d="M19.483 59.378a4.331 4.331 0 014.327-4.335 4.33 4.33 0 014.327 4.335 4.332 4.332 0 01-4.327 4.337 4.332 4.332 0 01-4.327-4.337" fill="#E4E4E4"/><path d="M23.81 54.543a4.831 4.831 0 00-4.827 4.835 4.832 4.832 0 004.827 4.837 4.832 4.832 0 004.827-4.837 4.831 4.831 0 00-4.827-4.835zm0 1a3.831 3.831 0 013.827 3.835 3.832 3.832 0 01-3.827 3.837 3.832 3.832 0 01-3.827-3.837 3.831 3.831 0 013.827-3.835z" fill="#00BAFF" fill-rule="nonzero"/><path d="M37.894 59.378a4.331 4.331 0 014.326-4.335 4.33 4.33 0 014.328 4.335 4.332 4.332 0 01-4.328 4.337 4.332 4.332 0 01-4.326-4.337" fill="#FFF"/><path d="M42.22 54.543a4.831 4.831 0 00-4.826 4.835 4.832 4.832 0 004.826 4.837 4.832 4.832 0 004.828-4.837 4.83 4.83 0 00-4.828-4.835zm0 1a3.83 3.83 0 013.828 3.835 3.832 3.832 0 01-3.828 3.837 3.832 3.832 0 01-3.826-3.837 3.831 3.831 0 013.826-3.835zM24.537 36.286v17.076h-1V36.286zm17.195 0v17.076h-1V36.286z" fill="#00BAFF" fill-rule="nonzero"/></g></svg>