<svg width="74" height="74" xmlns="http://www.w3.org/2000/svg" xmlns:xlink="http://www.w3.org/1999/xlink"><defs><filter x="-11.8%" y="-9.1%" width="123.5%" height="119.5%" filterUnits="objectBoundingBox" id="a"><feMorphology radius=".5" operator="dilate" in="SourceAlpha" result="shadowSpreadOuter1"/><feOffset dy="2" in="shadowSpreadOuter1" result="shadowOffsetOuter1"/><feGaussianBlur stdDeviation="10" in="shadowOffsetOuter1" result="shadowBlurOuter1"/><feComposite in="shadowBlurOuter1" in2="SourceAlpha" operator="out" result="shadowBlurOuter1"/><feColorMatrix values="0 0 0 0 0 0 0 0 0 0 0 0 0 0 0 0 0 0 0.122486888 0" in="shadowBlurOuter1"/></filter><rect id="b" x="2" y="0" width="268" height="323" rx="10"/></defs><g fill="none" fill-rule="evenodd"><g transform="translate(-99 -34)"><use fill="#000" filter="url(#a)" xlink:href="#b"/><use stroke="#CBE8F8" fill="#FFF" xlink:href="#b"/></g><path fill="#FFF" d="M18.228 54.537h37.653V31.394H18.228z"/><path d="M56.457 30.818H17.652v24.295h38.805V30.818zm-1.153 1.152v21.991H18.803V31.97h36.501z" fill="#00BAFF" fill-rule="nonzero"/><path fill="#FFF" d="M18.228 30.998h37.653L37.495 19.427z"/><path d="M37.198 18.933L17.931 30.504c-.5.301-.287 1.07.297 1.07h37.653c.578 0 .796-.756.307-1.063L37.802 18.939a.576.576 0 00-.604-.006zm.29 1.169l16.397 10.32H20.304l17.184-10.32z" fill="#00BAFF" fill-rule="nonzero"/><path fill="#D0D2D3" d="M18.228 31.394L33.36 40.61l3.144 1.915 19.377-11.13z"/><path fill="#00BAFF" fill-rule="nonzero" d="M55.594 30.895l.574.999-19.673 11.3-18.567-11.308.6-.984 17.984 10.954z"/><path d="M18.228 52.003L33.36 40.61 18.228 52.003z" fill="#FFF"/><path fill="#00BAFF" fill-rule="nonzero" d="M33.014 40.15l.693.92-15.133 11.393-.693-.92z"/><path fill="#FFF" d="M40.908 40.211l14.973 11.02"/><path fill="#00BAFF" fill-rule="nonzero" d="M41.25 39.747l14.973 11.02-.683.928-14.973-11.02z"/><path fill="#FFF" d="M49.738 34.898l-13.173 7.573-11.562-6.825V19.198h24.735z"/><path d="M50.238 18.698H24.503v17.234l12.058 7.118 13.677-7.863V18.698zm-1 1v14.91l-12.671 7.284-11.064-6.532V19.698h23.735z" fill="#00BAFF" fill-rule="nonzero"/><path fill="#00BAFF" fill-rule="nonzero" d="M42.541 26.807l.567.567-7.32 7.328-3.573-3.577.567-.567 3.005 3.009z"/><path d="M37 .5C16.842.5.5 16.842.5 37S16.842 73.5 37 73.5 73.5 57.158 73.5 37 57.158.5 37 .5zm0 1c19.606 0 35.5 15.894 35.5 35.5S56.606 72.5 37 72.5 1.5 56.606 1.5 37 17.394 1.5 37 1.5z" fill="#00BAFF" fill-rule="nonzero"/></g></svg>