<svg width="196" height="42" xmlns="http://www.w3.org/2000/svg"><g fill="none" fill-rule="evenodd"><text font-family="Teko-Bold, Teko" font-size="39.07" font-weight="bold" letter-spacing="1.953" transform="translate(-1 -11)"><tspan x="1.13" y="37" fill="#051F46">BARRICADE</tspan> <tspan x="188.978" y="37" fill="#FF5E14">.</tspan></text><path fill="#FF5E14" fill-rule="nonzero" d="M3.644 31.977H7.55l-3.256 9.767H.388zm7.814 0h3.907l-3.256 9.767H8.202zm7.814 0h3.907l-3.256 9.767h-3.907zm7.814 0h3.907l-3.256 9.767H23.83zm7.814 0h3.907l-3.256 9.767h-3.907zm7.814 0h3.907l-3.256 9.767h-3.907zm7.814 0h3.907l-3.256 9.767h-3.907zm7.813 0h3.907l-3.255 9.767h-3.907zm8.466 0h3.907l-3.256 9.767H63.55z"/><path fill="#FF5E14" fill-rule="nonzero" d="M69.411 31.977h125.675l-3.256 9.767H66.155z"/><text font-family="Lato-Bold, Lato" font-size="7.814" font-weight="bold" letter-spacing=".977" fill="#FFF" transform="translate(.388 31.977)"><tspan x="72.069" y="8">RELIABLE CONTRACTORS</tspan></text></g></svg>