<svg width="1440" height="296" xmlns="http://www.w3.org/2000/svg" xmlns:xlink="http://www.w3.org/1999/xlink"><defs><path id="a" d="M0 0h534v145H0z"/></defs><g fill="none" fill-rule="evenodd"><path d="M-14 294h1477v619H-14z" fill="#0D2547"/><g transform="translate(-34)"><rect fill="url(#linearGradient-1)" width="1545" height="296" rx="23"/><path d="M32.758 114.51L601.439 296h-578z" fill="#00BAFF" opacity=".085"/></g><g transform="translate(736 1)"><mask id="b" fill="#fff"><use xlink:href="#a"/></mask><g mask="url(#b)" fill="#00BAFF" opacity=".12"><g transform="translate(0 -385)"><circle cx="261" cy="261" r="261"/><ellipse cx="258.5" cy="263.462" rx="150.5" ry="150.198"/></g></g></g><g transform="translate(1251 193)" fill="#00BAFF"><ellipse opacity=".055" cx="7" cy="73.22" rx="7" ry="6.784"/><ellipse opacity=".055" cx="29" cy="73.22" rx="7" ry="6.784"/><ellipse opacity=".055" cx="51" cy="73.22" rx="7" ry="6.784"/><ellipse opacity=".055" cx="73" cy="73.22" rx="7" ry="6.784"/><ellipse opacity=".055" cx="95" cy="73.22" rx="7" ry="6.784"/><ellipse opacity=".055" cx="117" cy="73.22" rx="7" ry="6.784"/><ellipse opacity=".055" cx="139" cy="73.22" rx="7" ry="6.784"/><ellipse opacity=".055" cx="161" cy="73.22" rx="7" ry="6.784"/><ellipse opacity=".055" cx="183" cy="73.22" rx="7" ry="6.784"/><ellipse opacity=".055" cx="7" cy="95.268" rx="7" ry="6.784"/><ellipse opacity=".055" cx="117" cy="95.268" rx="7" ry="6.784"/><ellipse opacity=".118" cx="29" cy="95.268" rx="7" ry="6.784"/><ellipse opacity=".055" cx="139" cy="95.268" rx="7" ry="6.784"/><ellipse opacity=".055" cx="51" cy="95.268" rx="7" ry="6.784"/><ellipse opacity=".055" cx="161" cy="95.268" rx="7" ry="6.784"/><ellipse opacity=".055" cx="73" cy="95.268" rx="7" ry="6.784"/><ellipse opacity=".055" cx="183" cy="95.268" rx="7" ry="6.784"/><ellipse opacity=".055" cx="95" cy="95.268" rx="7" ry="6.784"/><ellipse opacity=".055" cx="7" cy="6.928" rx="7" ry="6.784"/><ellipse opacity=".202" cx="29" cy="6.928" rx="7" ry="6.784"/><ellipse opacity=".055" cx="51" cy="6.928" rx="7" ry="6.784"/><ellipse opacity=".055" cx="73" cy="6.928" rx="7" ry="6.784"/><ellipse opacity=".055" cx="95" cy="6.928" rx="7" ry="6.784"/><ellipse opacity=".055" cx="117" cy="6.928" rx="7" ry="6.784"/><ellipse opacity=".055" cx="139" cy="6.928" rx="7" ry="6.784"/><ellipse opacity=".055" cx="161" cy="6.928" rx="7" ry="6.784"/><ellipse opacity=".055" cx="183" cy="6.928" rx="7" ry="6.784"/><ellipse opacity=".055" cx="7" cy="28.976" rx="7" ry="6.784"/><ellipse opacity=".055" cx="29" cy="28.976" rx="7" ry="6.784"/><ellipse opacity=".055" cx="51" cy="28.976" rx="7" ry="6.784"/><ellipse opacity=".055" cx="73" cy="28.976" rx="7" ry="6.784"/><ellipse opacity=".055" cx="95" cy="28.976" rx="7" ry="6.784"/><ellipse opacity=".055" cx="117" cy="28.976" rx="7" ry="6.784"/><ellipse opacity=".055" cx="139" cy="28.976" rx="7" ry="6.784"/><ellipse opacity=".055" cx="161" cy="28.976" rx="7" ry="6.784"/><ellipse opacity=".055" cx="183" cy="28.976" rx="7" ry="6.784"/><ellipse opacity=".055" cx="7" cy="51.024" rx="7" ry="6.784"/><ellipse opacity=".055" cx="29" cy="51.024" rx="7" ry="6.784"/><ellipse opacity=".055" cx="51" cy="51.024" rx="7" ry="6.784"/><ellipse opacity=".055" cx="73" cy="51.024" rx="7" ry="6.784"/><ellipse opacity=".055" cx="95" cy="51.024" rx="7" ry="6.784"/><ellipse opacity=".118" cx="117" cy="51.024" rx="7" ry="6.784"/><ellipse opacity=".055" cx="139" cy="51.024" rx="7" ry="6.784"/><ellipse opacity=".055" cx="161" cy="51.024" rx="7" ry="6.784"/><ellipse opacity=".055" cx="183" cy="51.024" rx="7" ry="6.784"/></g></g></svg>