<svg width="1440" height="294" xmlns="http://www.w3.org/2000/svg" xmlns:xlink="http://www.w3.org/1999/xlink"><defs><path id="a" d="M0 0h1440v294H0z"/><path id="d" d="M0 0h534v145H0z"/><linearGradient x1="-2.509%" y1="48.037%" x2="50%" y2="51.835%" id="c"><stop stop-color="#009FFD" offset="0%"/><stop stop-color="#2D399C" offset="100%"/></linearGradient></defs><g fill="none" fill-rule="evenodd"><mask id="b" fill="#fff"><use xlink:href="#a"/></mask><use fill="#D8D8D8" xlink:href="#a"/><g mask="url(#b)"><path fill="url(#c)" d="M0 0h1545v296H0z" transform="translate(-34)"/><path d="M-1.242 114.51L567.439 296h-578z" fill="#00BAFF" opacity=".085"/><g transform="translate(736 1)"><mask id="e" fill="#fff"><use xlink:href="#d"/></mask><g mask="url(#e)" fill="#00BAFF" opacity=".12"><g transform="translate(0 -385)"><circle cx="261" cy="261" r="261"/><ellipse cx="258.5" cy="263.462" rx="150.5" ry="150.198"/></g></g></g><g transform="translate(1251 193)" fill="#00BAFF"><ellipse opacity=".055" cx="7" cy="73.22" rx="7" ry="6.784"/><ellipse opacity=".055" cx="29" cy="73.22" rx="7" ry="6.784"/><ellipse opacity=".055" cx="51" cy="73.22" rx="7" ry="6.784"/><ellipse opacity=".055" cx="73" cy="73.22" rx="7" ry="6.784"/><ellipse opacity=".055" cx="95" cy="73.22" rx="7" ry="6.784"/><ellipse opacity=".055" cx="117" cy="73.22" rx="7" ry="6.784"/><ellipse opacity=".055" cx="139" cy="73.22" rx="7" ry="6.784"/><ellipse opacity=".055" cx="161" cy="73.22" rx="7" ry="6.784"/><ellipse opacity=".055" cx="183" cy="73.22" rx="7" ry="6.784"/><ellipse opacity=".055" cx="7" cy="95.268" rx="7" ry="6.784"/><ellipse opacity=".055" cx="117" cy="95.268" rx="7" ry="6.784"/><ellipse opacity=".118" cx="29" cy="95.268" rx="7" ry="6.784"/><ellipse opacity=".055" cx="139" cy="95.268" rx="7" ry="6.784"/><ellipse opacity=".055" cx="51" cy="95.268" rx="7" ry="6.784"/><ellipse opacity=".055" cx="161" cy="95.268" rx="7" ry="6.784"/><ellipse opacity=".055" cx="73" cy="95.268" rx="7" ry="6.784"/><ellipse opacity=".055" cx="183" cy="95.268" rx="7" ry="6.784"/><ellipse opacity=".055" cx="95" cy="95.268" rx="7" ry="6.784"/><ellipse opacity=".055" cx="7" cy="6.928" rx="7" ry="6.784"/><ellipse opacity=".202" cx="29" cy="6.928" rx="7" ry="6.784"/><ellipse opacity=".055" cx="51" cy="6.928" rx="7" ry="6.784"/><ellipse opacity=".055" cx="73" cy="6.928" rx="7" ry="6.784"/><ellipse opacity=".055" cx="95" cy="6.928" rx="7" ry="6.784"/><ellipse opacity=".055" cx="117" cy="6.928" rx="7" ry="6.784"/><ellipse opacity=".055" cx="139" cy="6.928" rx="7" ry="6.784"/><ellipse opacity=".055" cx="161" cy="6.928" rx="7" ry="6.784"/><ellipse opacity=".055" cx="183" cy="6.928" rx="7" ry="6.784"/><ellipse opacity=".055" cx="7" cy="28.976" rx="7" ry="6.784"/><ellipse opacity=".055" cx="29" cy="28.976" rx="7" ry="6.784"/><ellipse opacity=".055" cx="51" cy="28.976" rx="7" ry="6.784"/><ellipse opacity=".055" cx="73" cy="28.976" rx="7" ry="6.784"/><ellipse opacity=".055" cx="95" cy="28.976" rx="7" ry="6.784"/><ellipse opacity=".055" cx="117" cy="28.976" rx="7" ry="6.784"/><ellipse opacity=".055" cx="139" cy="28.976" rx="7" ry="6.784"/><ellipse opacity=".055" cx="161" cy="28.976" rx="7" ry="6.784"/><ellipse opacity=".055" cx="183" cy="28.976" rx="7" ry="6.784"/><ellipse opacity=".055" cx="7" cy="51.024" rx="7" ry="6.784"/><ellipse opacity=".055" cx="29" cy="51.024" rx="7" ry="6.784"/><ellipse opacity=".055" cx="51" cy="51.024" rx="7" ry="6.784"/><ellipse opacity=".055" cx="73" cy="51.024" rx="7" ry="6.784"/><ellipse opacity=".055" cx="95" cy="51.024" rx="7" ry="6.784"/><ellipse opacity=".118" cx="117" cy="51.024" rx="7" ry="6.784"/><ellipse opacity=".055" cx="139" cy="51.024" rx="7" ry="6.784"/><ellipse opacity=".055" cx="161" cy="51.024" rx="7" ry="6.784"/><ellipse opacity=".055" cx="183" cy="51.024" rx="7" ry="6.784"/></g></g></g></svg>