<svg width="1440" height="524" xmlns="http://www.w3.org/2000/svg" xmlns:xlink="http://www.w3.org/1999/xlink"><defs><path id="a" d="M0 0h1441v524H0z"/></defs><g fill="none" fill-rule="evenodd"><mask id="b" fill="#fff"><use xlink:href="#a"/></mask><use fill="#D8D8D8" xlink:href="#a"/><g mask="url(#b)"><path fill="#0D2547" d="M-14 0h1477v619H-14z"/><g transform="translate(1224 356)" opacity=".055" stroke="#979797" fill="#00BAFF"><rect y="67" width="150" height="150" rx="9"/><rect x="34" y="31" width="150" height="150" rx="9"/><rect x="66" width="150" height="150" rx="9"/></g><g opacity=".034" fill="#00BAFF"><path d="M341 263.5L212.5 41h-257L-173 263.5-44.5 486h257L341 263.5zM169.519 115.414L255.04 263.5l-85.517 148.075-171.047.001-85.519-148.083 85.518-148.076 171.043-.003z" fill-rule="nonzero"/><path d="M-45 40l42.845 74.956h170.768L254.35 263H340L211.748 40z"/></g></g></g></svg>