<svg width="1440" height="636" xmlns="http://www.w3.org/2000/svg" xmlns:xlink="http://www.w3.org/1999/xlink"><defs><path id="a" d="M0 0h1440v636H0z"/><path id="d" d="M0 0h1471.589v625H0z"/><linearGradient x1="-2.509%" y1="39.798%" x2="50%" y2="59.54%" id="c"><stop stop-color="#009FFD" offset="0%"/><stop stop-color="#2D399C" offset="100%"/></linearGradient></defs><g fill="none" fill-rule="evenodd"><mask id="b" fill="#fff"><use xlink:href="#a"/></mask><use fill="#D8D8D8" xlink:href="#a"/><g mask="url(#b)"><path fill="url(#c)" d="M0 29h1456v636H0z" transform="translate(-13 -29)"/><g transform="translate(0 11)"><mask id="e" fill="#fff"><use xlink:href="#d"/></mask><g mask="url(#e)"><g transform="translate(-368 -560)"><g transform="translate(1364.946 549.47)" fill="#00BAFF"><ellipse opacity=".055" cx="7.157" cy="142.453" rx="7.157" ry="6.942"/><ellipse opacity=".055" cx="29.651" cy="142.453" rx="7.157" ry="6.942"/><ellipse opacity=".055" cx="52.144" cy="142.453" rx="7.157" ry="6.942"/><ellipse opacity=".055" cx="74.638" cy="142.453" rx="7.157" ry="6.942"/><ellipse opacity=".055" cx="97.131" cy="142.453" rx="7.157" ry="6.942"/><ellipse opacity=".055" cx="119.625" cy="142.453" rx="7.157" ry="6.942"/><ellipse opacity=".055" cx="142.118" cy="142.453" rx="7.157" ry="6.942"/><ellipse opacity=".055" cx="164.611" cy="142.453" rx="7.157" ry="6.942"/><ellipse opacity=".055" cx="187.105" cy="142.453" rx="7.157" ry="6.942"/><ellipse opacity=".202" cx="209.598" cy="142.453" rx="7.157" ry="6.942"/><ellipse opacity=".055" cx="7.157" cy="165.013" rx="7.157" ry="6.942"/><ellipse opacity=".055" cx="119.625" cy="165.013" rx="7.157" ry="6.942"/><ellipse opacity=".118" cx="29.651" cy="165.013" rx="7.157" ry="6.942"/><ellipse opacity=".055" cx="142.118" cy="165.013" rx="7.157" ry="6.942"/><ellipse opacity=".055" cx="52.144" cy="165.013" rx="7.157" ry="6.942"/><ellipse opacity=".055" cx="164.611" cy="165.013" rx="7.157" ry="6.942"/><ellipse opacity=".055" cx="74.638" cy="165.013" rx="7.157" ry="6.942"/><ellipse opacity=".055" cx="187.105" cy="165.013" rx="7.157" ry="6.942"/><ellipse opacity=".055" cx="97.131" cy="165.013" rx="7.157" ry="6.942"/><ellipse opacity=".055" cx="209.598" cy="165.013" rx="7.157" ry="6.942"/><ellipse opacity=".055" cx="7.157" cy="6.942" rx="7.157" ry="6.942"/><ellipse opacity=".118" cx="29.651" cy="6.942" rx="7.157" ry="6.942"/><ellipse opacity=".055" cx="52.144" cy="6.942" rx="7.157" ry="6.942"/><ellipse opacity=".055" cx="74.638" cy="6.942" rx="7.157" ry="6.942"/><ellipse opacity=".055" cx="97.131" cy="6.942" rx="7.157" ry="6.942"/><ellipse opacity=".055" cx="119.625" cy="6.942" rx="7.157" ry="6.942"/><ellipse opacity=".055" cx="142.118" cy="6.942" rx="7.157" ry="6.942"/><ellipse opacity=".055" cx="164.611" cy="6.942" rx="7.157" ry="6.942"/><ellipse opacity=".202" cx="187.105" cy="6.942" rx="7.157" ry="6.942"/><ellipse opacity=".055" cx="209.598" cy="6.942" rx="7.157" ry="6.942"/><ellipse opacity=".055" cx="7.157" cy="29.502" rx="7.157" ry="6.942"/><ellipse opacity=".055" cx="29.651" cy="29.502" rx="7.157" ry="6.942"/><ellipse opacity=".055" cx="52.144" cy="29.502" rx="7.157" ry="6.942"/><ellipse opacity=".055" cx="74.638" cy="29.502" rx="7.157" ry="6.942"/><ellipse opacity=".055" cx="97.131" cy="29.502" rx="7.157" ry="6.942"/><ellipse opacity=".055" cx="119.625" cy="29.502" rx="7.157" ry="6.942"/><ellipse opacity=".055" cx="142.118" cy="29.502" rx="7.157" ry="6.942"/><ellipse opacity=".055" cx="164.611" cy="29.502" rx="7.157" ry="6.942"/><ellipse opacity=".055" cx="187.105" cy="29.502" rx="7.157" ry="6.942"/><ellipse opacity=".055" cx="209.598" cy="29.502" rx="7.157" ry="6.942"/><ellipse opacity=".055" cx="7.157" cy="52.062" rx="7.157" ry="6.942"/><ellipse opacity=".055" cx="29.651" cy="52.062" rx="7.157" ry="6.942"/><ellipse opacity=".055" cx="52.144" cy="52.062" rx="7.157" ry="6.942"/><ellipse opacity=".055" cx="74.638" cy="52.062" rx="7.157" ry="6.942"/><ellipse opacity=".055" cx="97.131" cy="52.062" rx="7.157" ry="6.942"/><ellipse opacity=".118" cx="119.625" cy="52.062" rx="7.157" ry="6.942"/><ellipse opacity=".055" cx="142.118" cy="52.062" rx="7.157" ry="6.942"/><ellipse opacity=".055" cx="164.611" cy="52.062" rx="7.157" ry="6.942"/><ellipse opacity=".118" cx="187.105" cy="52.062" rx="7.157" ry="6.942"/><ellipse opacity=".055" cx="209.598" cy="52.062" rx="7.157" ry="6.942"/><ellipse opacity=".055" cx="7.157" cy="74.622" rx="7.157" ry="6.942"/><ellipse opacity=".202" cx="29.651" cy="74.622" rx="7.157" ry="6.942"/><ellipse opacity=".055" cx="52.144" cy="74.622" rx="7.157" ry="6.942"/><ellipse opacity=".055" cx="74.638" cy="74.622" rx="7.157" ry="6.942"/><ellipse opacity=".055" cx="97.131" cy="74.622" rx="7.157" ry="6.942"/><ellipse opacity=".055" cx="119.625" cy="74.622" rx="7.157" ry="6.942"/><ellipse opacity=".055" cx="142.118" cy="74.622" rx="7.157" ry="6.942"/><ellipse opacity=".055" cx="164.611" cy="74.622" rx="7.157" ry="6.942"/><ellipse opacity=".055" cx="187.105" cy="74.622" rx="7.157" ry="6.942"/><ellipse opacity=".055" cx="209.598" cy="74.622" rx="7.157" ry="6.942"/><ellipse opacity=".055" cx="7.157" cy="97.182" rx="7.157" ry="6.942"/><ellipse opacity=".055" cx="29.651" cy="97.182" rx="7.157" ry="6.942"/><ellipse opacity=".055" cx="52.144" cy="97.182" rx="7.157" ry="6.942"/><ellipse opacity=".055" cx="74.638" cy="97.182" rx="7.157" ry="6.942"/><ellipse opacity=".055" cx="97.131" cy="97.182" rx="7.157" ry="6.942"/><ellipse opacity=".055" cx="119.625" cy="97.182" rx="7.157" ry="6.942"/><ellipse opacity=".055" cx="142.118" cy="97.182" rx="7.157" ry="6.942"/><ellipse opacity=".055" cx="164.611" cy="97.182" rx="7.157" ry="6.942"/><ellipse opacity=".055" cx="187.105" cy="97.182" rx="7.157" ry="6.942"/><ellipse opacity=".055" cx="209.598" cy="97.182" rx="7.157" ry="6.942"/><ellipse opacity=".055" cx="7.157" cy="119.742" rx="7.157" ry="6.942"/><ellipse opacity=".055" cx="29.651" cy="119.742" rx="7.157" ry="6.942"/><ellipse opacity=".055" cx="52.144" cy="119.742" rx="7.157" ry="6.942"/><ellipse opacity=".055" cx="74.638" cy="119.742" rx="7.157" ry="6.942"/><ellipse opacity=".055" cx="97.131" cy="119.742" rx="7.157" ry="6.942"/><ellipse opacity=".118" cx="119.625" cy="119.742" rx="7.157" ry="6.942"/><ellipse opacity=".055" cx="142.118" cy="119.742" rx="7.157" ry="6.942"/><ellipse opacity=".055" cx="164.611" cy="119.742" rx="7.157" ry="6.942"/><ellipse opacity=".055" cx="187.105" cy="119.742" rx="7.157" ry="6.942"/><ellipse opacity=".055" cx="209.598" cy="119.742" rx="7.157" ry="6.942"/></g><path fill="#00BAFF" opacity=".055" d="M562.337 798.113h25.561v115.624h-25.561zm-79.749-90.043h25.561v205.668h-25.561z"/><path fill="#00BAFF" opacity=".221" d="M601.19 846.205h25.561v67.533H601.19zm-79.75-52.185h25.561v119.717H521.44z"/><path d="M1418.113 1080.927l-131.383-227.56h-262.765l-131.382 227.56 131.382 227.56h262.766l131.382-227.56zm-175.328-151.454l87.44 151.454-87.435 151.443h-174.884l-87.437-151.45 87.436-151.443 174.88-.004z" fill="#00BAFF" fill-rule="nonzero" opacity=".055"/><path fill="#00BAFF" opacity=".055" d="M1023.454 853.367l43.806 76.75h174.599l87.66 151.585h87.571l-131.128-228.335z"/><rect stroke="#979797" fill="#00BAFF" opacity=".055" x="1593.971" y="841.089" width="153.365" height="153.483" rx="9"/><rect stroke="#979797" fill="#00BAFF" opacity=".055" x="1628.734" y="804.253" width="153.365" height="153.483" rx="9"/><rect stroke="#979797" fill="#00BAFF" opacity=".055" x="1661.451" y="772.533" width="153.365" height="153.483" rx="9"/><path stroke="#FFF" opacity=".082" d="M1594.482 917.319l-187.523 186.738m438.019-331.013L1223.851 1393.8"/><path stroke="#FFF" opacity=".08" d="M553.307 873.832L18.404 1409.149m516.5-628.431L0 1316.035"/><ellipse fill="#00BAFF" opacity=".12" cx="837.372" cy="413.382" rx="266.855" ry="267.061"/><ellipse fill="#00BAFF" opacity=".12" cx="834.815" cy="415.901" rx="153.876" ry="153.686"/></g></g></g></g></g></svg>