<svg width="92" height="48" xmlns="http://www.w3.org/2000/svg" xmlns:xlink="http://www.w3.org/1999/xlink"><defs><filter x="-11.8%" y="-9.1%" width="123.5%" height="119.5%" filterUnits="objectBoundingBox" id="a"><feMorphology radius=".5" operator="dilate" in="SourceAlpha" result="shadowSpreadOuter1"/><feOffset dy="2" in="shadowSpreadOuter1" result="shadowOffsetOuter1"/><feGaussianBlur stdDeviation="10" in="shadowOffsetOuter1" result="shadowBlurOuter1"/><feComposite in="shadowBlurOuter1" in2="SourceAlpha" operator="out" result="shadowBlurOuter1"/><feColorMatrix values="0 0 0 0 0 0 0 0 0 0 0 0 0 0 0 0 0 0 0.122486888 0" in="shadowBlurOuter1"/></filter><rect id="b" x="2" y="0" width="268" height="323" rx="10"/></defs><g fill="none" fill-rule="evenodd"><g transform="translate(-92 -59)"><use fill="#000" filter="url(#a)" xlink:href="#b"/><use stroke="#CBE8F8" fill="#FFF" xlink:href="#b"/></g><path fill="#00BAFF" fill-rule="nonzero" d="M71.16 22.285V33.24h-1.153v-9.805h-47.96v10.09h-1.151v-11.24z"/><path d="M37.777 46.792H4.755a3.45 3.45 0 01-3.45-3.45v-6.748a3.45 3.45 0 013.45-3.45h33.022a3.45 3.45 0 013.45 3.45v6.748a3.45 3.45 0 01-3.45 3.45" fill="#E4E4E4"/><path d="M37.777 32.568H4.755A4.026 4.026 0 00.73 36.594v6.748a4.026 4.026 0 004.026 4.026h33.022a4.026 4.026 0 004.026-4.026v-6.748a4.026 4.026 0 00-4.026-4.026zM4.755 33.72h33.022a2.874 2.874 0 012.874 2.874v6.748a2.874 2.874 0 01-2.874 2.874H4.755a2.874 2.874 0 01-2.874-2.874v-6.748a2.874 2.874 0 012.874-2.874z" fill="#00BAFF" fill-rule="nonzero"/><path d="M87.455 46.792H54.433a3.45 3.45 0 01-3.45-3.45v-6.748a3.45 3.45 0 013.45-3.45h33.022a3.45 3.45 0 013.45 3.45v6.748a3.45 3.45 0 01-3.45 3.45" fill="#00BAFF" opacity=".31"/><path d="M87.455 32.568H54.433a4.026 4.026 0 00-4.027 4.026v6.748a4.026 4.026 0 004.027 4.026h33.022a4.026 4.026 0 004.026-4.026v-6.748a4.026 4.026 0 00-4.026-4.026zM54.433 33.72h33.022a2.874 2.874 0 012.874 2.874v6.748a2.874 2.874 0 01-2.874 2.874H54.433a2.874 2.874 0 01-2.875-2.874v-6.748a2.874 2.874 0 012.875-2.874z" fill="#00BAFF" fill-rule="nonzero"/><path fill="#FFF" d="M46.319 17.457v5.617"/><path fill="#00BAFF" fill-rule="nonzero" d="M46.894 17.458v5.616h-1.152v-5.616z"/><path d="M66.73 17.54H27.452a4.104 4.104 0 01-4.104-4.104V5.41a4.104 4.104 0 014.104-4.104h39.28a4.104 4.104 0 014.104 4.104v8.027a4.104 4.104 0 01-4.104 4.104" fill="#FFF"/><path d="M66.73.729H27.452a4.68 4.68 0 00-4.68 4.68v8.027a4.68 4.68 0 004.68 4.68h39.28a4.68 4.68 0 004.68-4.68V5.41A4.68 4.68 0 0066.73.73zM27.452 1.88h39.28a3.528 3.528 0 013.528 3.528v8.027a3.528 3.528 0 01-3.528 3.528H27.45a3.528 3.528 0 01-3.528-3.528V5.41a3.528 3.528 0 013.528-3.528z" fill="#00BAFF" fill-rule="nonzero"/><path fill="#FFF" d="M28.536 6.573h20.476"/><path fill="#00BAFF" fill-rule="nonzero" d="M49.013 5.997V7.15H28.536V5.997z"/><path fill="#FFF" d="M28.536 11.755h12.235"/><path fill="#00BAFF" fill-rule="nonzero" d="M40.771 11.18v1.152H28.536V11.18z"/><path fill="#00BAFF" d="M5.667 37.549h17.215"/><path fill="#FFF" fill-rule="nonzero" d="M22.882 36.973v1.152H5.668v-1.152z"/><path fill="#00BAFF" d="M5.667 41.952h10.286"/><path fill="#FFF" fill-rule="nonzero" d="M15.953 41.376v1.152H5.668v-1.152z"/><path fill="#00BAFF" d="M55.345 37.549h17.214"/><path fill="#FFF" fill-rule="nonzero" d="M72.56 36.973v1.152H55.344v-1.152z"/><path fill="#00BAFF" d="M55.345 41.952H65.63"/><path fill="#FFF" fill-rule="nonzero" d="M65.63 41.376v1.152H55.345v-1.152z"/><path d="M44.605 17.458a1.564 1.564 0 113.128 0 1.564 1.564 0 01-3.128 0" fill="#FFF"/><path d="M46.169 15.317a2.14 2.14 0 100 4.281 2.14 2.14 0 000-4.28zm0 1.152a.988.988 0 110 1.977.988.988 0 010-1.977z" fill="#00BAFF" fill-rule="nonzero"/></g></svg>