<svg width="64" height="68" xmlns="http://www.w3.org/2000/svg" xmlns:xlink="http://www.w3.org/1999/xlink"><defs><filter x="-11.8%" y="-9.1%" width="123.5%" height="119.5%" filterUnits="objectBoundingBox" id="a"><feMorphology radius=".5" operator="dilate" in="SourceAlpha" result="shadowSpreadOuter1"/><feOffset dy="2" in="shadowSpreadOuter1" result="shadowOffsetOuter1"/><feGaussianBlur stdDeviation="10" in="shadowOffsetOuter1" result="shadowBlurOuter1"/><feComposite in="shadowBlurOuter1" in2="SourceAlpha" operator="out" result="shadowBlurOuter1"/><feColorMatrix values="0 0 0 0 0 0 0 0 0 0 0 0 0 0 0 0 0 0 0.122486888 0" in="shadowBlurOuter1"/></filter><rect id="b" x="3" y="0" width="268" height="323" rx="10"/></defs><g fill="none" fill-rule="evenodd"><g transform="translate(-106 -45)"><use fill="#000" filter="url(#a)" xlink:href="#b"/><use stroke="#CBE8F8" fill="#FFF" xlink:href="#b"/></g><path fill="#D0D2D3" d="M1.694 8.95h58.824V1.53H1.694z"/><path fill="#00BAFF" fill-rule="nonzero" d="M60.735.73v52.72h-4.807v-1h3.806V1.73H1.907v50.72h40.232v1H.908V.73z"/><path fill="#00BAFF" fill-rule="nonzero" d="M60.268 8.322v1H1.408v-1z"/><path d="M7.717 30.229c0-9.528 7.682-17.253 17.159-17.253 9.477 0 17.16 7.725 17.16 17.253S34.353 47.48 24.876 47.48s-17.16-7.723-17.16-17.25" fill="#E0F7FF"/><path d="M24.876 12.476c-9.754 0-17.66 7.95-17.66 17.753s7.906 17.751 17.66 17.751c9.754 0 17.66-7.948 17.66-17.751 0-9.804-7.906-17.753-17.66-17.753zm0 1c9.2 0 16.66 7.5 16.66 16.753 0 9.252-7.46 16.751-16.66 16.751s-16.66-7.499-16.66-16.75c0-9.253 7.46-16.753 16.66-16.753z" fill="#00BAFF" fill-rule="nonzero"/><path fill="#00BAFF" fill-rule="nonzero" d="M33.993 24.36v1h-18.5v-1zm0 5.93v1h-18.5v-1zm0 5.527v1h-18.5v-1z"/><path d="M5.078 5.131c0-.617.497-1.116 1.11-1.116.614 0 1.11.5 1.11 1.116 0 .616-.496 1.116-1.11 1.116-.613 0-1.11-.5-1.11-1.116m4.084 0c0-.617.497-1.116 1.11-1.116.614 0 1.11.5 1.11 1.116 0 .616-.496 1.116-1.11 1.116-.613 0-1.11-.5-1.11-1.116m4.091 0c0-.617.497-1.116 1.11-1.116.614 0 1.11.5 1.11 1.116 0 .616-.496 1.116-1.11 1.116-.613 0-1.11-.5-1.11-1.116" fill="#00BAFF"/><path fill="#00BAFF" fill-rule="nonzero" d="M40.117 39.214l5.07 5.097-.71.705-5.07-5.097zm-4.267 4.688l5.135 5.162-.709.705-5.134-5.162z"/><path d="M54.456 65.25L42.09 52.816a4.807 4.807 0 010-6.77 4.743 4.743 0 016.734 0L61.19 58.479a4.805 4.805 0 010 6.77 4.745 4.745 0 01-6.734 0" fill="#E0F7FF"/><path d="M41.735 45.694a5.307 5.307 0 000 7.476l12.366 12.432a5.245 5.245 0 007.444 0 5.305 5.305 0 000-7.476L49.178 45.694a5.243 5.243 0 00-7.444 0zm6.735.705l12.366 12.432a4.305 4.305 0 010 6.066 4.245 4.245 0 01-6.026 0L42.444 52.464a4.307 4.307 0 010-6.065 4.243 4.243 0 016.026 0z" fill="#00BAFF" fill-rule="nonzero"/></g></svg>