<svg width="180" height="60" xmlns="http://www.w3.org/2000/svg"><defs><linearGradient x1="7.765%" y1="-3.469%" x2="50%" y2="100%" id="a"><stop stop-color="#8CEBD6" offset="0%"/><stop stop-color="#00CDFF" offset="100%"/></linearGradient></defs><g fill="none" fill-rule="evenodd"><path d="M53.81 0v32.28c0 9.712-2.356 16.323-7.009 20.882C42.176 57.695 35.483 60 26.911 60c-8.747 0-15.478-2.28-20.029-6.762C2.318 48.729 0 42.106 0 33.546V11.397l17.584-3.799v26.518c0 3.786.82 6.699 2.444 8.65 1.59 1.9 3.846 2.81 6.884 2.81 2.974 0 5.168-.924 6.73-2.836 1.613-1.976 2.42-4.876 2.42-8.624V3.799L53.812 0z" fill="url(#a)"/><g fill-rule="nonzero"><path d="M41.744 42.162V31.72l4.435 10.443h3.881l4.403-10.573.033 10.573h5.348V19.07h-4.761l-6.914 15.762-6.947-15.762h-4.794v23.092h5.316zm25.666 0l2.055-4.767H79.77l2.055 4.767h6.033L76.966 19.07h-4.827L61.28 42.162h6.131zm10.371-9.34h-6.327l3.164-7.298 3.163 7.298zm17.448 9.34v-8.984h2.217c1.283 0 2.099.433 2.446 1.298l3 7.686h6.49l-2.739-6.876c-.304-.8-.717-1.437-1.239-1.913a3.631 3.631 0 00-1.761-.908c1.522-.476 2.701-1.281 3.538-2.416.837-1.135 1.256-2.481 1.256-4.038 0-2.227-.707-3.94-2.12-5.14-1.413-1.2-3.522-1.8-6.327-1.8H89.195v23.091h6.034zm3.783-13.524h-3.848v-4.962h3.848c1.326 0 2.277.194 2.853.583.577.39.865 1.027.865 1.914 0 .843-.294 1.465-.88 1.865-.588.4-1.534.6-2.838.6zm19.6 13.524V31.686l9.295 10.476h7.272l-10.631-12.13L134.82 19.07h-7.175l-9.034 9.925V19.07h-6.131v23.092h6.131z" fill="#9159FD"/><path d="M145.713 42.454c3.327 0 5.876-.86 7.648-2.578 1.772-1.72 2.658-4.2 2.658-7.444V19.07h-6.034v13.59c0 1.643-.37 2.913-1.108 3.81-.74.898-1.794 1.346-3.164 1.346-1.391 0-2.462-.443-3.212-1.33-.75-.886-1.125-2.162-1.125-3.827V19.07h-5.968v13.362c0 3.287.87 5.779 2.609 7.476 1.739 1.697 4.304 2.546 7.696 2.546zm20.448-.292v-9.016h4.925c2.609 0 4.652-.638 6.13-1.914 1.48-1.275 2.219-2.983 2.219-5.124 0-2.162-.729-3.876-2.185-5.14-1.457-1.265-3.512-1.898-6.164-1.898H160.03v23.092h6.131zm4.11-13.557h-4.11v-4.93h4.11c1.195 0 2.07.211 2.625.633.554.422.831 1.043.831 1.865 0 1.622-1.152 2.432-3.457 2.432z" fill="#8CEBD6"/></g></g></svg>