<svg width="111" height="38" xmlns="http://www.w3.org/2000/svg" xmlns:xlink="http://www.w3.org/1999/xlink"><defs><linearGradient x1="8.881%" y1="-3.469%" x2="50%" y2="100%" id="b"><stop stop-color="#8CEBD6" offset="0%"/><stop stop-color="#00CDFF" offset="100%"/></linearGradient><path id="a" d="M0 .484h32.762v41.711H0z"/></defs><g fill="none" fill-rule="evenodd"><g transform="translate(0 -4.922)"><mask id="c" fill="#fff"><use xlink:href="#a"/></mask><path d="M32.762 5.173V25.09c0 5.994-1.435 10.073-4.267 12.886-2.816 2.797-6.891 4.22-12.11 4.22-5.326 0-9.424-1.407-12.195-4.173C1.411 35.24 0 31.154 0 25.872V12.205l10.706-2.344v16.362c0 2.337.499 4.134 1.488 5.338.968 1.172 2.342 1.734 4.191 1.734 1.811 0 3.147-.57 4.098-1.75.982-1.22 1.474-3.009 1.474-5.322V7.517l10.805-2.344z" fill="url(#b)" mask="url(#c)"/></g><g fill-rule="nonzero"><path d="M25.6 26v-6.44L28.32 26h2.38l2.7-6.52.02 6.52h3.28V11.76h-2.92l-4.24 9.72-4.26-9.72h-2.94V26h3.26zm15.74 0l1.26-2.94h6.32L50.18 26h3.7L47.2 11.76h-2.96L37.58 26h3.76zm6.36-5.76h-3.88l1.94-4.5 1.94 4.5zM58.4 26v-5.54h1.36c.787 0 1.287.267 1.5.8L63.1 26h3.98l-1.68-4.24c-.187-.493-.44-.887-.76-1.18-.32-.293-.68-.48-1.08-.56.933-.293 1.657-.79 2.17-1.49.513-.7.77-1.53.77-2.49 0-1.373-.433-2.43-1.3-3.17-.867-.74-2.16-1.11-3.88-1.11H54.7V26h3.7zm2.32-8.34h-2.36V14.6h2.36c.813 0 1.397.12 1.75.36s.53.633.53 1.18c0 .52-.18.903-.54 1.15-.36.247-.94.37-1.74.37zM72.74 26v-6.46l5.7 6.46h4.46l-6.52-7.48 6.3-6.76h-4.4l-5.54 6.12v-6.12h-3.76V26h3.76z" fill="#FFF"/><path d="M89.36 26.18c2.04 0 3.603-.53 4.69-1.59 1.087-1.06 1.63-2.59 1.63-4.59v-8.24h-3.7v8.38c0 1.013-.227 1.797-.68 2.35-.453.553-1.1.83-1.94.83-.853 0-1.51-.273-1.97-.82-.46-.547-.69-1.333-.69-2.36v-8.38h-3.66V20c0 2.027.533 3.563 1.6 4.61 1.067 1.047 2.64 1.57 4.72 1.57zM101.9 26v-5.56h3.02c1.6 0 2.853-.393 3.76-1.18.907-.787 1.36-1.84 1.36-3.16 0-1.333-.447-2.39-1.34-3.17-.893-.78-2.153-1.17-3.78-1.17h-6.78V26h3.76zm2.52-8.36h-2.52V14.6h2.52c.733 0 1.27.13 1.61.39.34.26.51.643.51 1.15 0 1-.707 1.5-2.12 1.5z" fill="#8CEBD6"/></g></g></svg>