<svg xmlns="http://www.w3.org/2000/svg" class="brandLogo brandLogo--lockup--animated" aria-label="Mailchimp" width="188" height="60"><g class="brandLogo__freddie"><g class="brandLogo__freddie-outline" fill="#fff"><path d="M11.546 30.98a5.044 5.044 0 00-1.182.08 4.96 4.96 0 00-4.094 5.767c.283 2.672 3.132 4.925 5.77 4.993a4.428 4.428 0 00.809-.054c2.854-.462 3.601-3.403 3.13-6.292-.53-3.262-2.855-4.412-4.433-4.494zm2.796 7.728a1.197 1.197 0 01-1.113.527 1.5 1.5 0 01-1.382-1.515 3.7 3.7 0 01.287-1.478 1.342 1.342 0 00-.55-1.663 1.555 1.555 0 00-1.136-.2 1.459 1.459 0 00-.929.609 3.146 3.146 0 00-.34.76 2.54 2.54 0 01-.037.107c-.13.33-.336.426-.475.408a.272.272 0 01-.215-.201 2.799 2.799 0 01.79-2.44 2.56 2.56 0 012.126-.729 2.518 2.518 0 011.931 1.333 2.918 2.918 0 01-.236 2.703l-.087.188a1.066 1.066 0 00-.027 1.033.763.763 0 00.633.305 1.46 1.46 0 00.346-.046c.146-.032.298-.066.39.044a.217.217 0 01.024.255z"/><path d="M48.018 44.188a14.892 14.892 0 001.02-4.731c0-1.995-1.13-2.821-1.85-2.821a34.72 34.72 0 00-.36-1.223 9.835 9.835 0 00-.397-1.067 3.864 3.864 0 00.694-2.817 3.564 3.564 0 00-1.037-2.013 8.44 8.44 0 00-3.664-1.812c-.203-.056-.874-.24-.933-.258-.005-.039-.05-2.198-.09-3.124a10.694 10.694 0 00-.412-2.746 7.352 7.352 0 00-1.904-3.395c2.324-2.406 3.775-5.057 3.772-7.33-.007-4.373-5.385-5.696-12.012-2.956l-1.404.595c-.006-.006-2.539-2.487-2.577-2.52C19.31-.611-4.316 25.61 3.237 31.98l1.65 1.395a8.09 8.09 0 00-.458 3.742 7.367 7.367 0 002.549 4.73 7.762 7.762 0 005.002 2.012c2.94 6.764 9.655 10.913 17.53 11.146 8.447.25 15.537-3.707 18.508-10.817zm1.734-8.004a5.037 5.037 0 011.052 3.273 16.443 16.443 0 01-1.14 5.37l-.015.04a18.63 18.63 0 01-7.634 8.833 22.741 22.741 0 01-11.75 3.08h-.002c-.267 0-.538-.003-.806-.011a22.808 22.808 0 01-11.506-3.397 19.697 19.697 0 01-7.134-7.834 9.763 9.763 0 01-5.01-2.37 9.124 9.124 0 01-3.136-5.875 10.162 10.162 0 01.19-3.32l-.766-.648a6.007 6.007 0 01-2.075-4.29 12.183 12.183 0 01.863-4.973c1.573-4.295 5.191-9.41 9.68-13.68a36.055 36.055 0 016.623-5.08 13.75 13.75 0 016.664-2.147 6.163 6.163 0 014.176 1.486c.066.057 1.058 1.028 1.81 1.765l.329-.139a18.87 18.87 0 017.046-1.563c4.497 0 7.407 2.411 7.412 6.144.004 2.303-1.127 4.885-3.211 7.384a10.195 10.195 0 011.272 2.844 12.503 12.503 0 01.482 3.168c.02.462.041 1.202.058 1.855a9.857 9.857 0 014.143 2.2 5.29 5.29 0 011.502 2.947 5.429 5.429 0 01-.488 3.235 26.282 26.282 0 01.246.769 3.74 3.74 0 011.125.934z"/><path d="M44.397 34a2.668 2.668 0 00.836-2.115 1.84 1.84 0 00-.526-1.043 6.558 6.558 0 00-2.884-1.38c-.484-.138-.813-.226-1.167-.344-.63-.21-.94-.378-1.011-1.575a382.68 382.68 0 01-.154-3.1c-.057-1.321-.214-3.126-1.322-3.871a1.844 1.844 0 00-.947-.306 1.772 1.772 0 00-.562.056 2.969 2.969 0 00-1.472.84 5.038 5.038 0 01-3.845 1.299c-.776-.033-1.597-.155-2.539-.212l-.55-.032a5.075 5.075 0 00-4.89 4.48c-.54 3.75 2.146 5.687 2.922 6.824a.954.954 0 01.213.51.818.818 0 01-.276.537v.001a9.68 9.68 0 00-2.09 9.017 7.49 7.49 0 00.393 1.094c1.96 4.63 8.04 6.787 13.98 4.826a14.497 14.497 0 002.257-.964 11.867 11.867 0 003.455-2.611 10.433 10.433 0 002.877-5.705c.18-1.193-.083-1.655-.44-1.877a1.302 1.302 0 00-.83-.153 11.617 11.617 0 00-.79-2.724zm-9.734-17.884c.096.022.157-.144.07-.192a10.747 10.747 0 00-4.58-1.199.083.083 0 01-.066-.133 4.661 4.661 0 01.862-.864.086.086 0 00-.058-.154 12.171 12.171 0 00-5.48 1.932.084.084 0 01-.13-.088 6.012 6.012 0 01.58-1.414.081.081 0 00-.108-.11 22.24 22.24 0 00-6.243 5.094.085.085 0 00.113.125 19.084 19.084 0 016.74-2.975 18.68 18.68 0 018.3-.022m-6.992-6.698s-2.056-2.381-2.677-2.557c-3.82-1.03-12.07 4.651-17.337 12.158-2.132 3.037-5.183 8.415-3.724 11.182a11.159 11.159 0 001.744 1.678 6.496 6.496 0 014.103-2.614A33.36 33.36 0 0120.313 14.48a53.792 53.792 0 017.358-5.063"/></g><path d="M14.204 38.605a.23.23 0 01.023.26 1.134 1.134 0 01-1.07.534 1.489 1.489 0 01-1.328-1.538 3.955 3.955 0 01.276-1.501 1.403 1.403 0 00-.529-1.689 1.427 1.427 0 00-1.09-.204 1.399 1.399 0 00-.893.619 3.299 3.299 0 00-.328.771 2.335 2.335 0 01-.035.11c-.124.335-.323.432-.457.414-.063-.008-.15-.05-.207-.204a2.954 2.954 0 01.76-2.479 2.38 2.38 0 012.043-.739 2.424 2.424 0 011.856 1.354 3.11 3.11 0 01-.227 2.745c-.031.07-.06.133-.084.19a1.136 1.136 0 00-.026 1.05.72.72 0 00.608.31 1.334 1.334 0 00.333-.047c.14-.033.286-.067.375.044m34.757.868a14.918 14.918 0 01-1.012 4.722c-2.952 7.094-9.996 11.044-18.387 10.794-7.823-.233-14.495-4.374-17.415-11.123a7.69 7.69 0 01-4.97-2.007 7.36 7.36 0 01-2.532-4.721 8.107 8.107 0 01.456-3.734l-1.64-1.393C-4.043 25.656 19.427-.511 26.934 6.057c.037.033 2.553 2.509 2.56 2.515l1.394-.594c6.584-2.735 11.927-1.415 11.933 2.949.004 2.269-1.438 4.914-3.747 7.314a7.346 7.346 0 011.892 3.388 10.706 10.706 0 01.41 2.74c.04.925.084 3.08.088 3.118.059.018.726.201.928.258a8.371 8.371 0 013.64 1.808 3.56 3.56 0 011.03 2.009 3.868 3.868 0 01-.69 2.81 9.87 9.87 0 01.395 1.065c.195.625.336 1.144.358 1.22.714 0 1.836.825 1.836 2.816zm-33.16-3.893c-.511-3.313-2.745-4.48-4.261-4.564a4.595 4.595 0 00-1.136.081c-2.706.548-4.234 2.856-3.934 5.856a6.06 6.06 0 005.545 5.071 4.025 4.025 0 00.777-.054c2.742-.47 3.46-3.456 3.008-6.39zm4.624-21.03a53.44 53.44 0 017.31-5.053s-2.043-2.376-2.66-2.551c-3.794-1.029-11.99 4.64-17.223 12.132-2.118 3.03-5.149 8.398-3.7 11.158a11.098 11.098 0 001.733 1.675 6.451 6.451 0 014.077-2.609A33.285 33.285 0 0120.425 14.55zm8.247 26.216a2.507 2.507 0 001.77 1.857 7.973 7.973 0 001.395.38c6.002 1.035 11.613-2.407 12.876-3.274.095-.065.158-.001.082.113a2.01 2.01 0 01-.124.177c-1.546 2-5.703 4.317-11.11 4.317-2.36 0-4.716-.834-5.582-2.115-1.343-1.987-.066-4.888 2.171-4.585.003 0 .766.087.98.11a20.44 20.44 0 0010.183-1.634c3.053-1.421 4.206-2.985 4.033-4.252a1.822 1.822 0 00-.526-1.035 6.583 6.583 0 00-2.886-1.371c-.485-.137-.814-.224-1.169-.341-.63-.208-.941-.376-1.012-1.564-.03-.52-.121-2.331-.154-3.08-.057-1.31-.214-3.103-1.323-3.843a1.854 1.854 0 00-.948-.304 1.789 1.789 0 00-.563.056 2.978 2.978 0 00-1.473.835 5.07 5.07 0 01-3.85 1.289c-.775-.033-1.597-.154-2.54-.21l-.551-.032a5.065 5.065 0 00-4.895 4.448c-.54 3.724 2.149 5.648 2.925 6.778a.943.943 0 01.214.506.811.811 0 01-.276.533v.001a9.556 9.556 0 00-2.093 8.954 7.404 7.404 0 00.394 1.087c1.961 4.598 8.047 6.74 13.993 4.791a14.582 14.582 0 002.259-.956 11.874 11.874 0 003.459-2.593 10.332 10.332 0 002.88-5.666c.179-1.185-.083-1.643-.44-1.864a1.314 1.314 0 00-.831-.152 11.47 11.47 0 00-.791-2.705 17.323 17.323 0 01-5.663 2.825 22.865 22.865 0 01-7.572.821c-1.642-.133-2.728-.614-3.137.718a17.7 17.7 0 007.721.788.14.14 0 01.153.125.15.15 0 01-.086.15s-3.05 1.42-7.893-.083zM19.74 19.17a18.918 18.918 0 016.695-2.968 18.478 18.478 0 018.246-.022c.095.022.156-.143.07-.191a10.643 10.643 0 00-4.551-1.197.083.083 0 01-.065-.133 4.646 4.646 0 01.856-.862.086.086 0 00-.057-.154 12.06 12.06 0 00-5.444 1.928.084.084 0 01-.13-.088 6.01 6.01 0 01.577-1.41.08.08 0 00-.108-.11 22.118 22.118 0 00-6.202 5.083.085.085 0 00.113.124zm15.805 12.641a.791.791 0 001.04-.173c.15-.293-.069-.69-.492-.888a.791.791 0 00-1.04.174c-.151.292.069.69.492.887zm1.296-4.751a3.58 3.58 0 00.64 1.457 4.08 4.08 0 01.996 0 3.081 3.081 0 00.049-1.792c-.24-1.086-.563-1.743-1.23-1.641-.669.102-.693.89-.455 1.976zm1.422 2.495a.839.839 0 10.607.82.737.737 0 00-.607-.82z"/><path d="M27.17 29.459c-.107-.015-.153-.06-.166-.121-.041-.188.247-.496.55-.719a3.202 3.202 0 013.114-.373 2.668 2.668 0 011.175.945c.108.177.13.314.06.386-.11.116-.39-.016-.843-.216a3.717 3.717 0 00-1.756-.378 19.46 19.46 0 00-2.135.476zm4.526.932a1.722 1.722 0 00-1.55-.508 2.143 2.143 0 00-1.127.47.723.723 0 00-.289.45.138.138 0 00.046.108.142.142 0 00.097.037 1.804 1.804 0 00.433-.12 3.768 3.768 0 011.904-.198c.298.033.438.052.503-.05a.167.167 0 00-.017-.19z"/><path d="M30.855 30.663a3.998 3.998 0 00.031-2.045c-.242-1.088-.607-1.71-1.285-1.607s-.695.98-.477 2.071a3.99 3.99 0 00.577 1.405c.539.752.904.557 1.153.176z"/></g><path d="M180.492 35.197c-1.245 0-2.16-1.578-2.16-3.778 0-2.136.941-3.777 2.117-3.777 1.51 0 2.154 1.385 2.154 3.777 0 2.488-.593 3.778-2.111 3.778zm1.49-12.085a5.07 5.07 0 00-4.624 3.283c-.367.787-.349 1.018-.617 1.018-.388 0-.066-.632.108-1.376a6.191 6.191 0 00.082-2.582h-3.976v19.079h5.427v-6.049a4.247 4.247 0 003.666 2.253c3.924 0 5.899-3.321 5.899-7.807 0-5.085-2.364-7.821-5.966-7.821zm-40.519.364v14.933h5.427V23.476a5.736 5.736 0 01-2.708.534 5.815 5.815 0 01-2.719-.534zm-6.727-.361c-3.142 0-4.337 2.977-4.578 3.494s-.361.814-.558.808c-.343-.011-.104-.635.03-1.038a17.58 17.58 0 00.788-5.223 6.9 6.9 0 00-.226-2.226h-4.685v19.48h5.427v-7.438c0-1.212.483-3.329 1.851-3.329 1.132 0 1.487.839 1.487 2.529v8.239h5.427v-7.913c0-3.838-.636-7.381-4.963-7.381zm-19.493 7.819c0-1.344 1.249-2.567 3.541-2.567a9.944 9.944 0 014.958 1.476v-5.2s-1.587-1.528-5.489-1.528c-4.113 0-7.538 2.407-7.538 7.587s3.108 8.052 7.527 8.052a8.595 8.595 0 005.509-1.896v-4.939a9.504 9.504 0 01-4.942 1.623c-2.623 0-3.567-1.207-3.567-2.607zm-11.4-12.004h5.427v19.48h-5.427zM87.031 34.912c-1.298.3-1.97-.1-1.97-.96 0-1.178 1.219-1.65 2.958-1.65.767 0 1.488.066 1.488.066a3.858 3.858 0 01-2.476 2.544zm1.321-11.797a17.098 17.098 0 00-7.14 1.528v4.493s3.294-1.894 5.966-1.894c2.133 0 2.395 1.15 2.298 2.105a11.644 11.644 0 00-2.492-.163c-4.423 0-6.656 2.01-6.656 5.234 0 3.058 2.509 4.336 4.624 4.336a5.087 5.087 0 004.858-3.057c.289-.682.342-1.142.602-1.142.296 0 .196.33.182 1.009a10.928 10.928 0 00.22 2.846h4.09v-7.358c0-4.594-1.625-7.937-6.551-7.937zm77.871-.003a4.592 4.592 0 00-4.11 3.09c-.303.677-.387 1.212-.633 1.212-.346 0-.115-.591-.381-1.496a3.677 3.677 0 00-3.881-2.806c-2.508 0-3.582 2.119-4.091 3.283-.348.796-.349 1.018-.617 1.018-.388 0-.066-.632.108-1.376a6.19 6.19 0 00.082-2.582h-3.976v14.95h5.427v-7.438c0-1.467.614-3.329 1.666-3.329 1.215 0 1.459.934 1.459 2.662v8.109h5.449v-7.442c0-1.306.533-3.329 1.674-3.329 1.232 0 1.451 1.311 1.451 2.662v8.105h5.351v-8.792c0-3.902-1.375-6.503-4.977-6.503zm-92.114 0a4.592 4.592 0 00-4.11 3.09c-.303.677-.387 1.212-.633 1.212-.346 0-.098-.465-.381-1.496a3.737 3.737 0 00-3.881-2.806c-2.508 0-3.582 2.119-4.091 3.283-.348.796-.349 1.018-.617 1.018-.388 0-.066-.632.108-1.376a6.191 6.191 0 00.082-2.582H56.61v14.95h5.427v-7.438c0-1.467.614-3.329 1.666-3.329 1.215 0 1.459.934 1.459 2.662v8.109h5.449v-7.442c0-1.306.533-3.329 1.674-3.329 1.232 0 1.451 1.311 1.451 2.662v8.105h5.351v-8.792c0-3.902-1.375-6.503-4.977-6.503zm66.73-2.165c0-1.197 1.487-2.168 3.322-2.168s3.322.97 3.322 2.168-1.487 2.168-3.322 2.168-3.322-.97-3.322-2.168zM99.378 24.01a5.736 5.736 0 002.708-.534v14.933h-5.427V23.476zm-3.343-3.063c0-1.197 1.487-2.168 3.322-2.168s3.322.97 3.322 2.168-1.487 2.168-3.322 2.168-3.322-.97-3.322-2.168z"/></svg>