<svg width="819" height="562" xmlns="http://www.w3.org/2000/svg"><defs><linearGradient x1="-2.444%" y1="-3.469%" x2="50%" y2="100%" id="a"><stop stop-color="#009FFD" offset="0%"/><stop stop-color="#2D399C" offset="100%"/></linearGradient><linearGradient x1="-2.444%" y1="-3.469%" x2="50%" y2="100%" id="b"><stop stop-color="#009FFD" offset="0%"/><stop stop-color="#2D399C" offset="100%"/></linearGradient><linearGradient x1="-2.444%" y1="-3.469%" x2="50%" y2="100%" id="c"><stop stop-color="#009FFD" offset="0%"/><stop stop-color="#2D399C" offset="100%"/></linearGradient></defs><g fill="none" fill-rule="evenodd"><path fill-opacity=".123" fill="#9159FD" d="M167 .49h652v257H167zm-167 304h652v257H0z"/><g transform="translate(111 61.49)"><rect stroke="#CBE8F8" fill="#0D2547" x="10.491" y="8.588" width="442.509" height="442.783" rx="17"/><path d="M139.238 70.974V213.17a7 7 0 007 7h89.951a7 7 0 017 7v111.831a7 7 0 007 7h68.971a7 7 0 017 7v35.985a7 7 0 01-13.274 3.103M140.192 217.923v47.374a7 7 0 01-7 7H80.366a7 7 0 00-7 7v66.747a7 7 0 01-7 7H27.027a7 7 0 00-7 7v16.399a6.272 6.272 0 0011.704 3.137" stroke="#FFF"/><ellipse fill="url(#a)" cx="19.551" cy="390.775" rx="19.551" ry="19.563"/><ellipse fill="#9159FD" cx="140.192" cy="249.066" rx="11.444" ry="11.451"/><ellipse fill="#19CCA3" cx="325.683" cy="434.672" rx="45.3" ry="45.328"/><ellipse fill="#19CCA3" cx="72.48" cy="323.499" rx="15.259" ry="15.268"/><ellipse fill="#163C72" cx="286.105" cy="346.402" rx="23.842" ry="23.857"/><ellipse fill="url(#b)" cx="243.189" cy="254.791" rx="11.444" ry="11.451"/><path stroke="#FFF" d="M140.192 55.825l206.472.477"/><ellipse fill="url(#c)" cx="138.761" cy="45.328" rx="45.3" ry="45.328"/><ellipse fill="#FFF" cx="139.238" cy="157.455" rx="30.518" ry="30.537"/><ellipse fill="#FFF" cx="205.996" cy="55.348" rx="7.629" ry="7.634"/><ellipse fill="#FFF" cx="254.634" cy="55.348" rx="7.629" ry="7.634"/><ellipse fill="#FFF" cx="302.318" cy="55.348" rx="7.629" ry="7.634"/><ellipse fill="#FFF" cx="350.002" cy="55.348" rx="7.629" ry="7.634"/><path stroke="#FFF" d="M140.192 157.932h281.336"/><ellipse fill="#9159FD" cx="221.255" cy="157.455" rx="7.629" ry="7.634"/><ellipse fill="#9159FD" cx="278.476" cy="157.455" rx="7.629" ry="7.634"/><ellipse fill="#9159FD" cx="335.697" cy="157.455" rx="7.629" ry="7.634"/><ellipse fill="#9159FD" cx="421.528" cy="157.455" rx="7.629" ry="7.634"/></g></g></svg>