<svg width="675" height="488" xmlns="http://www.w3.org/2000/svg" xmlns:xlink="http://www.w3.org/1999/xlink"><defs><filter x="-11.4%" y="-16.9%" width="122.7%" height="135.7%" filterUnits="objectBoundingBox" id="a"><feMorphology radius=".5" operator="dilate" in="SourceAlpha" result="shadowSpreadOuter1"/><feOffset dy="2" in="shadowSpreadOuter1" result="shadowOffsetOuter1"/><feGaussianBlur stdDeviation="12" in="shadowOffsetOuter1" result="shadowBlurOuter1"/><feComposite in="shadowBlurOuter1" in2="SourceAlpha" operator="out" result="shadowBlurOuter1"/><feColorMatrix values="0 0 0 0 0 0 0 0 0 0 0 0 0 0 0 0 0 0 0.122486888 0" in="shadowBlurOuter1"/></filter><filter x="-9.2%" y="-47.9%" width="118.4%" height="213.1%" filterUnits="objectBoundingBox" id="c"><feOffset dy="2" in="SourceAlpha" result="shadowOffsetOuter1"/><feGaussianBlur stdDeviation="4" in="shadowOffsetOuter1" result="shadowBlurOuter1"/><feColorMatrix values="0 0 0 0 0.831380208 0 0 0 0 0.831380208 0 0 0 0 0.831380208 0 0 0 0.5 0" in="shadowBlurOuter1"/></filter><filter x="-40.4%" y="-20.9%" width="180.7%" height="144.3%" filterUnits="objectBoundingBox" id="e"><feMorphology radius=".5" operator="dilate" in="SourceAlpha" result="shadowSpreadOuter1"/><feOffset dy="2" in="shadowSpreadOuter1" result="shadowOffsetOuter1"/><feGaussianBlur stdDeviation="12" in="shadowOffsetOuter1" result="shadowBlurOuter1"/><feComposite in="shadowBlurOuter1" in2="SourceAlpha" operator="out" result="shadowBlurOuter1"/><feColorMatrix values="0 0 0 0 0 0 0 0 0 0 0 0 0 0 0 0 0 0 0.122486888 0" in="shadowBlurOuter1"/></filter><rect id="b" x="201.197" y="151.785" width="330.248" height="209.815" rx="6"/><rect id="f" x="474.606" y="231.306" width="92.888" height="169.475" rx="14"/><path id="d" d="M305 274.676h141v22.98H305z"/></defs><g fill="none" fill-rule="evenodd"><ellipse fill-opacity=".122" fill="#00BAFF" cx="170" cy="170.93" rx="170" ry="170.661"/><ellipse fill-opacity=".122" fill="#00BAFF" cx="552.5" cy="346.596" rx="122.5" ry="123.116"/><ellipse fill-opacity=".122" fill="#00BAFF" cx="544" cy="51.317" rx="45" ry="45.043"/><ellipse fill-opacity=".122" fill="#00BAFF" cx="93" cy="442.687" rx="45" ry="45.043"/><ellipse fill="#00BAFF" cx="374" cy="272.5" rx="204" ry="203.5"/><use fill="#000" filter="url(#a)" xlink:href="#b"/><use stroke="#CBE8F8" fill="#F5F5F5" xlink:href="#b"/><path stroke="#DCDCDC" d="M201.197 177.509h330.249"/><ellipse fill="#F8A4BB" cx="215.39" cy="165.961" rx="2.838" ry="2.835"/><ellipse fill="#FECEAB" cx="225.799" cy="165.961" rx="2.838" ry="2.835"/><ellipse fill="#8CE6D0" cx="236.208" cy="165.961" rx="2.838" ry="2.835"/><path fill="#FFF" d="M253.242 157.455h258.332v14.177H253.242z"/><path fill="#19CCA3" d="M408.801 224.72l-12.894 12.638-5.71-5.595-1.197 1.174 6.907 6.77L410 225.894z"/><path fill="#FFF" d="M201 178.761h82v160.858h-82zm248 5.994h82v73.935h-82zm-155 0h145v143.873H294zm0 155.863h145V361.6H294z"/><ellipse fill="#19CCA3" cx="213" cy="196.745" rx="2" ry="1.998"/><ellipse fill="#19CCA3" cx="213" cy="211.732" rx="2" ry="1.998"/><ellipse fill="#00BAFF" cx="213" cy="226.719" rx="2" ry="1.998"/><ellipse fill="#19CCA3" cx="213" cy="241.705" rx="2" ry="1.998"/><ellipse fill="#00BAFF" cx="213" cy="256.692" rx="2" ry="1.998"/><ellipse fill="#19CCA3" cx="213" cy="271.679" rx="2" ry="1.998"/><ellipse fill="#9159FD" cx="213" cy="287.665" rx="2" ry="1.998"/><ellipse fill="#9159FD" cx="213" cy="302.652" rx="2" ry="1.998"/><rect fill="#EDEDED" x="224" y="194.747" width="47" height="3.996" rx="1.998"/><rect fill="#EDEDED" x="308" y="194.747" width="55" height="3.996" rx="1.998"/><rect fill="#EDEDED" x="463" y="199.742" width="55" height="3.996" rx="1.998"/><rect fill="#EDEDED" x="463" y="215.728" width="55" height="3.996" rx="1.998"/><rect fill="#EDEDED" x="463" y="233.712" width="55" height="3.996" rx="1.998"/><rect fill="#EDEDED" x="324" y="215.728" width="86" height="3.996" rx="1.998"/><ellipse fill="#E0F7FF" cx="423" cy="217.726" rx="6" ry="5.995"/><ellipse fill="#E0F7FF" cx="423" cy="240.706" rx="6" ry="5.995"/><ellipse fill="#E0F7FF" cx="423" cy="262.687" rx="6" ry="5.995"/><ellipse fill="#E0F7FF" cx="423" cy="310.645" rx="6" ry="5.995"/><rect fill="#EDEDED" x="324" y="237.709" width="86" height="3.996" rx="1.998"/><rect fill="#EDEDED" x="324" y="259.69" width="86" height="3.996" rx="1.998"/><rect fill="#EDEDED" x="324" y="308.646" width="86" height="3.996" rx="1.998"/><use fill="#000" filter="url(#c)" xlink:href="#d"/><use fill="#FFF" xlink:href="#d"/><rect fill="#EDEDED" x="224" y="209.733" width="47" height="3.996" rx="1.998"/><rect fill="#EDEDED" x="224" y="224.72" width="47" height="3.996" rx="1.998"/><rect fill="#EDEDED" x="224" y="239.707" width="47" height="3.996" rx="1.998"/><rect fill="#EDEDED" x="224" y="254.694" width="47" height="3.996" rx="1.998"/><rect fill="#EDEDED" x="224" y="269.681" width="47" height="3.996" rx="1.998"/><rect fill="#EDEDED" x="224" y="285.667" width="47" height="3.996" rx="1.998"/><rect fill="#EDEDED" x="224" y="300.653" width="47" height="3.996" rx="1.998"/><rect fill="#EDEDED" x="333" y="284.668" width="86" height="3.996" rx="1.998"/><path fill="#19CCA3" d="M327.144 280.671l-9.21 9.268-4.079-4.103-.855.86 4.934 4.965L328 281.531z"/><use fill="#000" filter="url(#e)" xlink:href="#f"/><use stroke="#CBE8F8" fill="#FFF" xlink:href="#f"/><path stroke="#FBFBFB" d="M482.112 248.444h78.96v128.534h-78.96z"/><ellipse fill="#F5F5F5" cx="519.642" cy="389.356" rx="6.568" ry="6.665"/><ellipse fill="#E0F7FF" cx="500" cy="271.419" rx="11" ry="11.031"/><rect fill="#EDEDED" x="517" y="267.407" width="34" height="2.006" rx="1.003"/><rect fill="#EDEDED" x="517" y="273.424" width="25" height="2.006" rx="1.003"/><ellipse fill="#00BAFF" cx="549" cy="368.691" rx="5" ry="5.014"/><text font-family="Helvetica" font-size="12" fill="#FFF"><tspan x="545" y="370.687">+</tspan></text><path stroke="#EDEDED" d="M485 295.987h72"/><ellipse fill="#19CCA3" cx="496.418" cy="311.94" rx="1.418" ry="1.412"/><ellipse fill="#19CCA3" cx="496.418" cy="322.296" rx="1.418" ry="1.412"/><ellipse fill="#00BAFF" cx="496.418" cy="333.593" rx="1.418" ry="1.412"/><ellipse fill="#19CCA3" cx="496.418" cy="344.89" rx="1.418" ry="1.412"/><ellipse fill="#00BAFF" cx="496.418" cy="355.245" rx="1.418" ry="1.412"/><rect fill="#EDEDED" x="503.509" y="310.528" width="43.491" height="2.824" rx="1.412"/><rect fill="#EDEDED" x="503.509" y="320.884" width="43.491" height="2.824" rx="1.412"/><rect fill="#EDEDED" x="503.509" y="332.181" width="43.491" height="2.824" rx="1.412"/><rect fill="#EDEDED" x="503.509" y="343.478" width="43.491" height="2.824" rx="1.412"/><rect fill="#EDEDED" x="503.509" y="353.833" width="43.491" height="2.824" rx="1.412"/></g></svg>