<svg width="633" height="371" xmlns="http://www.w3.org/2000/svg" xmlns:xlink="http://www.w3.org/1999/xlink"><defs><path id="a" d="M0 1.31h184.815v370.103H0z"/><path id="c" d="M0 372.1h632.435V1.997H0z"/><linearGradient x1="0%" y1="49.497%" x2="100%" y2="50.503%" id="e"><stop stop-color="#00BAFF" offset="0%"/><stop stop-color="#25497B" offset="100%"/></linearGradient></defs><g transform="translate(0 -2)" fill="none" fill-rule="evenodd"><path d="M615.748 1.998H18.316C9.1 1.998 1.628 9.47 1.628 18.686v336.662c0 9.215 7.47 16.687 16.688 16.687h597.432c9.216 0 16.686-7.472 16.686-16.687V18.686c0-9.216-7.47-16.688-16.686-16.688" fill="#F4F7FD"/><path d="M589.083 340.894H234.685c-6.721 0-12.169-5.447-12.169-12.169V42.242c0-6.723 5.448-12.17 12.17-12.17h354.397c6.722 0 12.17 5.447 12.17 12.17v286.483c0 6.722-5.448 12.17-12.17 12.17" fill="#FFF"/><g transform="translate(0 .687)"><mask id="b" fill="#fff"><use xlink:href="#a"/></mask><path d="M184.815 371.414H17.87C8 371.414 0 363.413 0 353.544V19.18C0 9.312 8 1.31 17.87 1.31h166.945v370.104z" fill="#FFF" mask="url(#b)"/></g><mask id="d" fill="#fff"><use xlink:href="#c"/></mask><path fill="#00BAFF" mask="url(#d)" d="M22.664 68.582h3.762V56.51h-3.762zm5.999 0h3.762V53.148h-3.762zm6.07 0h3.762v-18.7h-3.762z"/><path d="M53.857 65.552c1.964 0 2.947-1.007 2.947-3.02 0-1.996-.983-2.995-2.947-2.995h-1.498v6.015h1.498zm-3.044-7.273h3.14c1.397 0 2.481.372 3.252 1.115.771.742 1.156 1.789 1.156 3.139 0 1.357-.385 2.41-1.156 3.157-.77.746-1.855 1.12-3.253 1.12h-3.139v-8.53zm12.927 6.938c.272-.344.408-.827.408-1.45 0-.64-.136-1.13-.408-1.474-.271-.343-.659-.515-1.162-.515-.495 0-.88.178-1.156.533-.276.356-.413.849-.413 1.48 0 .623.137 1.102.413 1.438.276.335.665.503 1.168.503.495 0 .879-.172 1.15-.515zm1.881-4.455v6.048h-1.473v-.97a1.944 1.944 0 01-.791.784 2.408 2.408 0 01-1.174.282c-.527 0-.995-.128-1.402-.383a2.532 2.532 0 01-.947-1.09c-.223-.472-.335-1.02-.335-1.642 0-.623.114-1.176.341-1.66.228-.483.546-.858.953-1.126.407-.267.87-.401 1.39-.401.44 0 .83.094 1.174.281.343.188.607.45.79.785v-.908h1.474zm1.235 5.377l.419-1.052a3.638 3.638 0 002.216.716c.36 0 .637-.06.833-.18a.557.557 0 00.294-.502.529.529 0 00-.204-.438c-.136-.108-.367-.201-.695-.281l-1.006-.226c-1.103-.242-1.654-.805-1.654-1.691a1.6 1.6 0 01.312-.975c.207-.285.499-.505.874-.665.376-.16.811-.24 1.306-.24.432 0 .847.065 1.246.196.4.134.751.322 1.055.57l-.444 1.018c-.607-.447-1.23-.671-1.869-.671-.343 0-.61.064-.802.192a.601.601 0 00-.288.527c0 .175.058.317.174.42.116.103.313.19.593.263l1.03.23c.6.133 1.037.343 1.312.626.276.286.414.653.414 1.11 0 .558-.224 1.003-.671 1.328-.448.328-1.059.492-1.834.492-1.094 0-1.964-.256-2.611-.767m12.028-3.042v3.712h-1.497v-3.642c0-.477-.092-.827-.276-1.047-.184-.221-.467-.329-.85-.329-.456 0-.823.146-1.103.435-.28.294-.42.677-.42 1.158v3.425h-1.485v-8.818h1.486v3.644c.208-.327.483-.58.827-.76.343-.18.726-.27 1.15-.27 1.446 0 2.168.83 2.168 2.492m5.8 2.108c.271-.352.407-.843.407-1.474 0-.623-.136-1.104-.407-1.444-.272-.34-.66-.509-1.162-.509-.504 0-.89.172-1.163.515-.271.344-.407.831-.407 1.462 0 .64.136 1.128.407 1.468.272.34.663.509 1.175.509.495 0 .878-.176 1.15-.527m.64-4.212c.404.26.718.625.941 1.097.224.471.336 1.018.336 1.641s-.114 1.176-.342 1.66a2.66 2.66 0 01-.946 1.12 2.473 2.473 0 01-1.384.395c-.447 0-.845-.096-1.192-.287a1.878 1.878 0 01-.785-.803v.994h-1.474v-8.818h1.486v3.676a1.95 1.95 0 01.79-.782 2.408 2.408 0 011.175-.282c.527 0 .992.13 1.396.39m6.48 4.24c.268-.331.402-.825.402-1.478 0-.646-.136-1.142-.408-1.48-.271-.339-.655-.508-1.15-.508-.503 0-.89.17-1.162.509-.272.337-.407.833-.407 1.48 0 .652.133 1.146.401 1.477.268.332.653.497 1.156.497.511 0 .9-.165 1.168-.497m-2.78 1.29a2.63 2.63 0 01-1.078-1.096c-.251-.477-.377-1.035-.377-1.672 0-.64.126-1.198.377-1.673a2.63 2.63 0 011.079-1.096c.467-.256 1.008-.382 1.623-.382.607 0 1.142.126 1.606.382.463.255.82.623 1.072 1.096.252.475.377 1.032.377 1.673 0 .637-.125 1.195-.377 1.672a2.64 2.64 0 01-1.072 1.096c-.464.254-.999.382-1.606.382-.615 0-1.156-.128-1.623-.382m9.878-1.307c.271-.344.407-.827.407-1.45 0-.64-.136-1.13-.407-1.474-.272-.343-.66-.515-1.163-.515-.495 0-.88.178-1.156.533-.275.356-.413.849-.413 1.48 0 .623.138 1.102.413 1.438.276.335.665.503 1.168.503.496 0 .879-.172 1.15-.515zm1.88-4.455v6.048h-1.473v-.97a1.944 1.944 0 01-.79.784 2.408 2.408 0 01-1.175.282 2.59 2.59 0 01-1.402-.383 2.532 2.532 0 01-.946-1.09c-.224-.472-.336-1.02-.336-1.642 0-.623.114-1.176.342-1.66.227-.483.545-.858.952-1.126a2.48 2.48 0 011.39-.401c.44 0 .83.094 1.174.281.344.188.607.45.79.785v-.908h1.475zm5.488-.05l-.012 1.366a2.085 2.085 0 00-.791-.158c-.511 0-.9.15-1.168.445-.268.296-.402.687-.402 1.174v3.271h-1.485v-4.337c0-.639-.032-1.21-.096-1.713h1.402l.12 1.066c.151-.391.39-.69.718-.898a2.036 2.036 0 011.115-.312c.231 0 .431.032.599.096m4.618 4.505c.276-.344.414-.831.414-1.46 0-.633-.136-1.12-.408-1.464-.271-.343-.655-.515-1.15-.515-.503 0-.892.17-1.168.51-.275.339-.413.82-.413 1.443 0 .63.138 1.122.413 1.474.276.351.661.527 1.156.527.495 0 .88-.172 1.156-.515zm1.887-7.225v8.818h-1.473v-.97a1.944 1.944 0 01-.791.784 2.408 2.408 0 01-1.174.282c-.52 0-.983-.132-1.39-.395a2.632 2.632 0 01-.952-1.12c-.228-.484-.342-1.037-.342-1.66s.112-1.17.336-1.64c.223-.473.539-.838.946-1.098a2.55 2.55 0 011.402-.39c.431 0 .817.09 1.156.27.34.18.601.434.785.761v-3.642h1.497z" fill="#666" mask="url(#d)"/><path d="M52.485 95.134a3.484 3.484 0 01-1.372-1.517c-.32-.66-.48-1.436-.48-2.33 0-.893.16-1.668.48-2.32.32-.648.777-1.15 1.372-1.503.595-.351 1.296-.525 2.102-.525a4.69 4.69 0 011.624.268c.491.18.916.45 1.276.81l-.372.753c-.407-.35-.808-.6-1.204-.753a3.591 3.591 0 00-1.312-.23c-.934 0-1.659.306-2.174.911-.515.61-.773 1.472-.773 2.588 0 1.128.256 1.995.767 2.608.511.611 1.238.917 2.18.917.48 0 .917-.076 1.312-.228.396-.154.797-.405 1.204-.755l.372.755c-.36.357-.785.629-1.276.809a4.69 4.69 0 01-1.624.27c-.806 0-1.507-.176-2.102-.528m10.285-.894c.32-.402.48-.976.48-1.718 0-.743-.16-1.316-.48-1.714-.32-.399-.775-.6-1.366-.6-.59 0-1.052.207-1.383.618-.332.412-.498.985-.498 1.718 0 .736.164 1.304.492 1.703.327.4.79.599 1.39.599.59 0 1.046-.202 1.365-.605zm1.438-4.702v6.027h-.959v-1.09a1.91 1.91 0 01-.796.868c-.356.204-.769.306-1.24.306-.535 0-1.005-.128-1.408-.384a2.514 2.514 0 01-.935-1.084c-.22-.467-.33-1.012-.33-1.637 0-.621.113-1.173.336-1.646a2.62 2.62 0 01.94-1.108 2.494 2.494 0 011.397-.395c.471 0 .882.103 1.234.311.351.208.619.5.802.875v-1.043h.959zm10.568 2.24v3.786h-.97v-3.738c0-.567-.099-.979-.294-1.234-.196-.256-.514-.384-.953-.384-.511 0-.91.174-1.198.518-.287.343-.431.808-.431 1.4v3.438h-.97v-3.738c0-.56-.1-.969-.3-1.228-.2-.26-.52-.39-.959-.39-.51 0-.912.174-1.204.518-.291.343-.437.808-.437 1.4v3.438h-.97v-4.335c0-.625-.033-1.188-.096-1.691h.922l.096 1.054c.168-.384.417-.679.749-.887.331-.207.717-.31 1.156-.31.48 0 .87.095 1.174.286.304.192.527.488.671.889a2.08 2.08 0 01.809-.859 2.307 2.307 0 011.204-.315c1.334 0 2 .793 2 2.382m6.045 2.469c.323-.4.485-.967.485-1.703 0-.733-.164-1.306-.491-1.718-.328-.411-.783-.617-1.366-.617-.599 0-1.058.2-1.378.6-.32.399-.479.97-.479 1.713 0 .742.16 1.316.48 1.719.319.403.778.605 1.377.605.591 0 1.048-.2 1.372-.6m.21-4.456c.407.264.722.633.946 1.108.224.475.336 1.025.336 1.646 0 .625-.112 1.17-.336 1.637a2.553 2.553 0 01-.94 1.084c-.404.256-.873.384-1.408.384-.471 0-.883-.104-1.234-.312a2.013 2.013 0 01-.803-.886v3.702h-.97v-6.925c0-.623-.032-1.186-.096-1.69h.922l.096 1.163a1.97 1.97 0 01.797-.965c.363-.228.793-.341 1.288-.341.527 0 .994.131 1.402.395m6.65 4.45c.319-.402.478-.976.478-1.718 0-.743-.16-1.316-.479-1.714-.32-.399-.775-.6-1.366-.6-.59 0-1.052.207-1.384.618-.331.412-.497.985-.497 1.718 0 .736.164 1.304.491 1.703.328.4.791.599 1.39.599.591 0 1.047-.202 1.366-.605zm1.437-4.702v6.027h-.959v-1.09a1.91 1.91 0 01-.796.868c-.356.204-.77.306-1.24.306-.536 0-1.005-.128-1.408-.384a2.514 2.514 0 01-.935-1.084c-.22-.467-.33-1.012-.33-1.637 0-.621.113-1.173.336-1.646a2.62 2.62 0 01.94-1.108 2.494 2.494 0 011.397-.395c.47 0 .882.103 1.234.311.351.208.619.5.802.875v-1.043h.959zm1.881 6.027h.97v-6.028h-.97v6.028zm-.096-7.476h1.187v-1.102h-1.187v1.102zm6.848 5.901c.33-.388.496-.921.496-1.6 0-.68-.165-1.212-.497-1.601-.331-.386-.789-.582-1.372-.582-.59 0-1.056.196-1.395.582-.34.389-.51.92-.51 1.601 0 .679.17 1.212.51 1.6.339.387.804.58 1.395.58.583 0 1.04-.193 1.372-.58zm1.467-4.451v5.978c0 .895-.23 1.572-.69 2.03-.458.46-1.135.69-2.03.69-.918 0-1.71-.21-2.372-.625l.168-.789c.383.214.744.37 1.084.465.34.098.713.146 1.12.146.583 0 1.023-.156 1.318-.461.296-.308.443-.767.443-1.372v-1.426a2.035 2.035 0 01-.808.893c-.356.211-.777.317-1.264.317a2.67 2.67 0 01-1.408-.371 2.462 2.462 0 01-.953-1.056c-.223-.454-.335-.977-.335-1.568 0-.591.112-1.114.335-1.57.224-.455.542-.806.953-1.054a2.68 2.68 0 011.408-.371c.479 0 .896.104 1.252.31.355.209.625.498.808.876v-1.042h.97zm7.045 2.239v3.786h-.97v-3.738c0-.56-.112-.969-.336-1.228-.223-.26-.575-.39-1.054-.39-.56 0-1.007.174-1.342.518-.335.343-.503.804-.503 1.387v3.451h-.97v-4.335c0-.625-.033-1.188-.097-1.691h.923l.096 1.078c.184-.39.46-.693.827-.905a2.473 2.473 0 011.258-.315c1.445 0 2.168.793 2.168 2.382m1.462 3.091l.323-.717c.328.256.66.437.995.55.335.113.71.167 1.126.167.455 0 .8-.078 1.036-.232a.765.765 0 00.354-.679.732.732 0 00-.24-.573c-.16-.144-.423-.255-.79-.335l-1.02-.24c-.502-.114-.892-.311-1.167-.6a1.434 1.434 0 01-.414-1.031c0-.525.212-.955.635-1.286.424-.332.983-.497 1.678-.497.423 0 .822.065 1.198.201.375.138.69.332.946.587l-.323.71c-.567-.474-1.174-.71-1.821-.71-.432 0-.765.082-1 .246a.794.794 0 00-.354.689c0 .247.074.445.221.587.148.144.386.258.713.335l1.019.252c.559.128.974.325 1.246.595.271.268.407.615.407 1.046 0 .52-.212.935-.635 1.246-.423.312-.998.47-1.725.47-1.015 0-1.817-.26-2.408-.781m-56.779 29.449v-8.528h5.392v.815h-4.421v2.969h4.181v.827h-4.181v3.103h4.42v.814zm15.611-3.785v3.786h-.97v-3.74c0-.565-.098-.976-.294-1.234-.195-.255-.513-.381-.952-.381-.511 0-.91.172-1.198.515-.288.344-.432.81-.432 1.402v3.438h-.97v-3.74c0-.557-.1-.966-.3-1.226-.2-.26-.519-.39-.958-.39-.511 0-.913.173-1.204.516-.292.344-.438.81-.438 1.402v3.438h-.97v-4.337c0-.623-.032-1.186-.096-1.69h.923l.096 1.053c.167-.381.417-.679.748-.884.332-.21.717-.312 1.157-.312.479 0 .87.096 1.174.288.303.191.527.485.67.886.184-.36.454-.647.81-.856a2.29 2.29 0 011.203-.318c1.334 0 2.001.795 2.001 2.384m5.714 2.461c.32-.4.48-.974.48-1.717 0-.743-.16-1.316-.48-1.715-.319-.4-.774-.6-1.365-.6s-1.052.207-1.384.618c-.331.411-.497.984-.497 1.72s.164 1.303.491 1.7c.328.4.79.602 1.39.602.591 0 1.046-.204 1.366-.608zm1.439-4.7v6.024h-.959v-1.09a1.9 1.9 0 01-.797.869c-.355.203-.768.305-1.24.305-.535 0-1.004-.126-1.407-.383a2.508 2.508 0 01-.935-1.082c-.22-.47-.33-1.015-.33-1.638s.112-1.172.336-1.647c.224-.473.537-.845.94-1.108a2.51 2.51 0 011.396-.396c.472 0 .883.104 1.234.312.352.207.62.499.803.874v-1.04h.959zm1.881 6.026h.971v-6.027h-.97v6.027zm-.095-7.477h1.186v-1.102h-1.186v1.102zm2.945 7.475h.97V115.5h-.97zm8.16 0v-7.691h-2.972v-.837h6.938v.837h-2.972v7.691zm5.386-4.958c-.316.301-.517.728-.605 1.281h3.51c-.048-.569-.213-.998-.497-1.296-.283-.293-.677-.443-1.18-.443-.503 0-.913.154-1.228.457zm3.78 1.916h-4.421c.008.767.186 1.346.533 1.738.348.389.853.587 1.516.587.703 0 1.35-.238 1.94-.707l.324.707a2.835 2.835 0 01-1.012.585 3.805 3.805 0 01-1.264.215c-.943 0-1.682-.277-2.217-.832-.535-.553-.803-1.316-.803-2.28 0-.618.12-1.16.36-1.638a2.69 2.69 0 011.006-1.106 2.769 2.769 0 011.474-.396c.799 0 1.426.26 1.881.785.455.523.683 1.244.683 2.163v.18zm10.16-.743v3.786h-.97v-3.74c0-.565-.099-.976-.294-1.234-.196-.255-.514-.381-.953-.381-.511 0-.91.172-1.198.515-.287.344-.431.81-.431 1.402v3.438h-.97v-3.74c0-.557-.1-.966-.3-1.226-.2-.26-.52-.39-.959-.39-.51 0-.912.173-1.204.516-.291.344-.437.81-.437 1.402v3.438h-.97v-4.337c0-.623-.033-1.186-.096-1.69h.922l.096 1.053c.168-.381.417-.679.749-.884.331-.21.717-.312 1.156-.312.48 0 .87.096 1.174.288.304.191.527.485.671.886.184-.36.453-.647.809-.856a2.29 2.29 0 011.204-.318c1.334 0 2 .795 2 2.384M111.97 123c.323-.397.485-.964.485-1.701 0-.735-.164-1.308-.491-1.72-.328-.41-.783-.614-1.366-.614-.599 0-1.058.197-1.378.597-.32.401-.479.972-.479 1.715 0 .743.16 1.316.48 1.717.319.404.778.607 1.377.607.591 0 1.048-.201 1.372-.6m.21-4.456a2.6 2.6 0 01.946 1.107c.224.477.336 1.024.336 1.647s-.112 1.168-.336 1.637a2.547 2.547 0 01-.94 1.083c-.404.257-.873.383-1.408.383-.471 0-.883-.104-1.234-.31a2.035 2.035 0 01-.803-.886v3.7h-.97v-6.925c0-.621-.032-1.184-.096-1.687h.922l.096 1.162c.168-.415.433-.739.797-.967.363-.227.793-.341 1.288-.341.527 0 .994.134 1.402.397m2.778 5.773h.97V115.5h-.97zm6.722-1.324c.32-.4.48-.974.48-1.717 0-.743-.16-1.316-.48-1.715-.32-.4-.775-.6-1.366-.6-.59 0-1.052.207-1.383.618-.332.411-.498.984-.498 1.72s.164 1.303.492 1.7c.327.4.79.602 1.39.602.59 0 1.046-.204 1.365-.608zm1.438-4.7v6.024h-.959v-1.09a1.9 1.9 0 01-.796.869c-.356.203-.77.305-1.24.305-.536 0-1.005-.126-1.408-.383a2.508 2.508 0 01-.935-1.082c-.22-.47-.33-1.015-.33-1.638s.113-1.172.336-1.647c.224-.473.537-.845.94-1.108a2.51 2.51 0 011.397-.396c.47 0 .882.104 1.234.312.351.207.619.499.802.874v-1.04h.959zm3.176.766v3.294c0 .447.092.76.275.938.184.182.444.272.78.272.223 0 .439-.038.646-.108v.827c-.247.078-.527.12-.838.12-.576 0-1.025-.162-1.348-.486-.324-.323-.486-.8-.486-1.431v-3.427h-1.174v-.767h1.174v-1.545l.97-.348v1.893h1.726v.767h-1.725zm4.163.3c-.315.301-.517.728-.605 1.281h3.51c-.047-.569-.213-.998-.496-1.296-.284-.293-.677-.443-1.18-.443-.504 0-.913.154-1.229.457zm3.78 1.916h-4.42c.007.767.185 1.346.532 1.738.348.389.853.587 1.516.587.703 0 1.35-.238 1.941-.707l.324.707a2.835 2.835 0 01-1.013.585 3.805 3.805 0 01-1.264.215c-.942 0-1.681-.277-2.216-.832-.536-.553-.803-1.316-.803-2.28 0-.618.12-1.16.36-1.638a2.676 2.676 0 011.006-1.106 2.769 2.769 0 011.473-.396c.8 0 1.426.26 1.881.785.456.523.683 1.244.683 2.163v.18zm1.103 2.348l.324-.719c.327.256.659.438.994.552.336.111.711.167 1.126.167.456 0 .801-.078 1.037-.233a.762.762 0 00.353-.677c0-.24-.08-.432-.24-.575-.16-.144-.423-.256-.79-.336l-1.019-.24c-.503-.111-.892-.311-1.168-.598a1.44 1.44 0 01-.413-1.03c0-.528.212-.957.635-1.289.423-.331.982-.497 1.677-.497.424 0 .823.068 1.198.204.376.135.691.331.947.587l-.324.707c-.567-.474-1.174-.707-1.82-.707-.432 0-.766.082-1.001.245a.791.791 0 00-.354.69c0 .247.074.443.222.586.148.144.385.256.713.336l1.018.251c.56.128.975.326 1.246.593.272.268.408.615.408 1.049 0 .519-.212.934-.635 1.246-.424.311-.999.467-1.726.467-1.014 0-1.817-.26-2.408-.779m-83.598 28.678c-.571-.58-.857-1.438-.857-2.57v-5.19h.97v5.274c0 .83.204 1.455.612 1.879.407.425 1.01.637 1.809.637.79 0 1.387-.212 1.79-.637.404-.424.606-1.049.606-1.88v-5.273h.982v5.19c0 1.124-.287 1.98-.862 2.564-.575.583-1.414.874-2.516.874-1.119 0-1.963-.29-2.534-.868m13.018-3.015v3.786h-.971v-3.738c0-.56-.112-.969-.336-1.228-.223-.26-.575-.388-1.054-.388-.56 0-1.006.172-1.342.515-.335.344-.503.807-.503 1.39v3.449h-.97v-4.335c0-.625-.032-1.186-.096-1.69h.922l.096 1.079c.184-.392.46-.695.827-.905a2.454 2.454 0 011.258-.317c1.445 0 2.168.792 2.168 2.382m1.461 3.093l.324-.72c.328.256.66.438.995.552.335.112.71.168 1.126.168.455 0 .8-.078 1.036-.234a.764.764 0 00.354-.677c0-.24-.08-.431-.24-.575-.16-.144-.423-.256-.79-.335l-1.019-.24c-.503-.112-.893-.312-1.168-.6a1.442 1.442 0 01-.414-1.031c0-.526.212-.955.635-1.286.424-.332.983-.498 1.678-.498.423 0 .823.068 1.198.202.375.138.69.331.946.587l-.323.709c-.567-.473-1.174-.709-1.821-.709-.432 0-.765.082-1 .246a.795.795 0 00-.354.69c0 .248.074.444.222.588.147.141.385.255.712.335l1.019.252c.559.126.974.325 1.246.593.271.267.407.615.407 1.046 0 .521-.211.937-.635 1.246-.423.314-.998.47-1.725.47-1.014 0-1.817-.26-2.408-.78m11.358-5.331v6.027h-.947v-1.045a1.98 1.98 0 01-.802.84 2.333 2.333 0 01-1.163.288c-.71 0-1.25-.2-1.617-.599-.367-.399-.551-.99-.551-1.775v-3.736h.97v3.712c0 .545.112.945.336 1.2.223.256.563.382 1.018.382.535 0 .967-.174 1.294-.52.328-.347.491-.806.491-1.373v-3.4h.97zm6.061 4.69c.328-.411.492-.988.492-1.731 0-.727-.162-1.29-.485-1.69-.324-.399-.781-.599-1.372-.599-.6 0-1.059.2-1.378.6-.32.399-.48.968-.48 1.713 0 .743.16 1.316.48 1.72.32.402.779.604 1.378.604.583 0 1.038-.206 1.366-.617m.215-4.45c.408.255.723.616.947 1.081.223.47.335 1.015.335 1.638s-.112 1.172-.335 1.647c-.224.475-.54.845-.947 1.108a2.523 2.523 0 01-1.401.396c-.472 0-.883-.104-1.235-.312a2.013 2.013 0 01-.802-.886v1.114h-.97v-8.818h.97v3.858a1.92 1.92 0 01.796-.899c.356-.207.77-.311 1.24-.311.528 0 .995.128 1.402.383m2.409 5.093l.324-.72c.327.256.659.438.994.552.336.112.711.168 1.126.168.456 0 .801-.078 1.037-.234a.764.764 0 00.353-.677c0-.24-.08-.431-.24-.575-.16-.144-.423-.256-.79-.335l-1.019-.24c-.503-.112-.892-.312-1.168-.6a1.442 1.442 0 01-.413-1.031c0-.526.212-.955.635-1.286.423-.332.982-.498 1.677-.498.424 0 .823.068 1.198.202.376.138.691.331.947.587l-.324.709c-.567-.473-1.174-.709-1.82-.709-.432 0-.765.082-1.001.246a.795.795 0 00-.354.69c0 .248.074.444.222.588.148.141.386.255.713.335l1.018.252c.56.126.975.325 1.246.593.272.267.408.615.408 1.046 0 .521-.212.937-.635 1.246-.424.314-.999.47-1.725.47-1.015 0-1.818-.26-2.409-.78m7.315.394a2.567 2.567 0 01-1.006-1.084c-.236-.465-.354-1.012-.354-1.633 0-.625.12-1.172.36-1.65.24-.475.58-.842 1.024-1.106.443-.265.96-.395 1.551-.395.408 0 .801.07 1.18.207.38.14.694.334.941.581l-.323.72a3.467 3.467 0 00-.881-.526 2.31 2.31 0 00-.869-.168c-.615 0-1.098.204-1.45.615-.35.412-.526.987-.526 1.722 0 .725.173 1.29.52 1.693.348.403.833.605 1.456.605.296 0 .585-.054.869-.168.284-.111.577-.285.88-.527l.324.721c-.255.24-.577.43-.964.567a3.52 3.52 0 01-1.204.21c-.584 0-1.093-.126-1.528-.384m8.284-5.797l-.024.885a1.986 1.986 0 00-.635-.094c-.583 0-1.017.18-1.3.545-.284.363-.426.803-.426 1.324v3.438h-.97v-4.337c0-.625-.032-1.186-.096-1.69h.923l.096 1.115c.151-.407.395-.72.73-.934a2.08 2.08 0 011.15-.324 2 2 0 01.552.072m.982 6.098h.97v-6.026h-.97v6.026zm-.096-7.476h1.186v-1.102h-1.186v1.102zm7.14 6.14c.328-.411.491-.988.491-1.731 0-.727-.161-1.29-.485-1.69-.323-.399-.78-.599-1.372-.599-.599 0-1.058.2-1.377.6-.32.399-.48.968-.48 1.713 0 .743.16 1.316.48 1.72.319.402.778.604 1.377.604.583 0 1.039-.206 1.366-.617m.216-4.45c.407.255.723.616.946 1.081.224.47.336 1.015.336 1.638s-.112 1.172-.336 1.647a2.6 2.6 0 01-.946 1.108 2.523 2.523 0 01-1.402.396c-.471 0-.883-.104-1.234-.312a2.013 2.013 0 01-.803-.886v1.114h-.97v-8.818h.97v3.858c.176-.392.442-.691.797-.899.355-.207.769-.311 1.24-.311.527 0 .995.128 1.402.383m4.044.826c-.315.304-.517.73-.605 1.284h3.51c-.047-.57-.213-.998-.497-1.296-.283-.294-.677-.443-1.18-.443-.503 0-.912.153-1.228.455zm3.78 1.917h-4.42c.007.769.185 1.348.532 1.737.348.392.853.587 1.516.587.703 0 1.35-.233 1.94-.705l.324.705a2.78 2.78 0 01-1.012.587 3.805 3.805 0 01-1.264.216c-.943 0-1.681-.276-2.217-.833-.535-.555-.802-1.316-.802-2.28 0-.617.12-1.16.36-1.637a2.67 2.67 0 011.005-1.107 2.76 2.76 0 011.474-.395c.799 0 1.426.26 1.881.783.455.525.683 1.244.683 2.162v.18zm5.343 1.72c.32-.404.48-.977.48-1.72 0-.734-.16-1.304-.48-1.707-.32-.403-.775-.605-1.366-.605-.59 0-1.052.2-1.383.6-.332.398-.498.962-.498 1.688 0 .743.166 1.32.498 1.732.331.411.792.617 1.383.617s1.047-.202 1.366-.605zm1.438-7.494v8.818h-.959v-1.09a1.91 1.91 0 01-.796.868c-.356.204-.769.305-1.24.305-.527 0-.993-.131-1.396-.395a2.62 2.62 0 01-.94-1.108c-.224-.475-.336-1.025-.336-1.648s.11-1.168.33-1.635c.22-.467.533-.827.94-1.084a2.582 2.582 0 011.402-.384c.471 0 .882.102 1.234.308.351.202.615.487.79.854v-3.81h.971zM54.264 191.64c.631 0 1.106-.134 1.426-.408.32-.271.48-.662.48-1.174 0-.51-.16-.9-.48-1.168-.32-.267-.795-.401-1.426-.401h-2.336v3.15h2.336zm-3.319-3.966h3.403c.879 0 1.563.212 2.055.635.49.423.737 1.007.737 1.75 0 .742-.248 1.327-.743 1.755-.496.427-1.178.64-2.05.64h-2.42v3.75h-.982v-8.53zm10.915 2.433l-.024.885a1.986 1.986 0 00-.635-.094c-.584 0-1.017.18-1.3.545-.284.363-.426.803-.426 1.324v3.438h-.97v-4.337c0-.625-.032-1.186-.096-1.689h.922l.096 1.114a1.83 1.83 0 01.731-.934 2.08 2.08 0 011.15-.324 2 2 0 01.551.072m4.732 4.786c.32-.396.48-.971.48-1.732 0-.733-.164-1.304-.492-1.707-.327-.403-.782-.603-1.365-.603-.591 0-1.05.2-1.378.603-.328.403-.491.974-.491 1.707 0 .761.161 1.336.485 1.732.323.395.785.593 1.384.593.599 0 1.058-.198 1.377-.593m-2.875 1.012a2.57 2.57 0 01-1-1.09c-.236-.47-.354-1.023-.354-1.654 0-.63.118-1.182.354-1.651a2.57 2.57 0 011-1.092c.431-.256.93-.384 1.498-.384.567 0 1.066.128 1.497.384.432.257.765.619 1 1.092.236.47.354 1.02.354 1.651s-.118 1.184-.353 1.654a2.57 2.57 0 01-1 1.09c-.432.258-.931.383-1.498.383-.568 0-1.067-.125-1.498-.383m9.754-7.213h1.21v-1.126h-1.21v1.126zm-2.612 1.488h3.702v6.024h-.97v-5.258h-2.732v5.258h-.97v-5.258h-1.175v-.766h1.175v-.803c0-.49.073-.88.221-1.174.148-.298.39-.512.725-.65.336-.135.79-.201 1.366-.201h.383v.755h-.3c-.415 0-.72.034-.916.106a.65.65 0 00-.401.415c-.072.202-.108.515-.108.939v.613zm5.572 6.024h.97v-8.818h-.97zm4.114-4.96c-.316.304-.517.73-.605 1.284h3.51c-.048-.57-.213-.998-.497-1.296-.283-.293-.677-.443-1.18-.443-.503 0-.913.154-1.228.455zm3.78 1.917h-4.421c.008.769.186 1.348.533 1.737.348.392.853.587 1.516.587.703 0 1.35-.233 1.94-.705l.324.705a2.78 2.78 0 01-1.012.587 3.805 3.805 0 01-1.264.216c-.943 0-1.682-.275-2.217-.833-.535-.555-.802-1.315-.802-2.28 0-.617.12-1.16.359-1.637a2.68 2.68 0 011.006-1.107 2.76 2.76 0 011.474-.395c.799 0 1.426.26 1.881.783.455.525.683 1.244.683 2.162v.18zm-26.13 23.268h.815v8.53h-.91v-6.336l-2.768 6.336h-.695l-2.792-6.29.012 6.29h-.91v-8.53h.815l3.235 7.358zM62.262 220c-.315.303-.517.73-.605 1.283h3.51c-.047-.569-.213-.998-.497-1.296-.283-.293-.676-.443-1.18-.443-.503 0-.912.154-1.228.455zm3.78 1.916h-4.42c.007.77.185 1.348.532 1.738.348.391.853.587 1.516.587.703 0 1.35-.234 1.94-.705l.324.705a2.78 2.78 0 01-1.012.587 3.805 3.805 0 01-1.264.215c-.942 0-1.681-.275-2.216-.832-.536-.555-.803-1.316-.803-2.28 0-.618.12-1.16.36-1.638a2.664 2.664 0 011.006-1.106c.431-.266.922-.396 1.473-.396.8 0 1.426.26 1.881.783.456.525.683 1.244.683 2.163v.18zm10.16-.743v3.786h-.97v-3.738c0-.567-.098-.978-.294-1.234-.195-.256-.513-.381-.952-.381-.511 0-.91.171-1.198.515-.288.343-.432.81-.432 1.402v3.436h-.97v-3.738c0-.559-.1-.968-.3-1.228-.2-.26-.519-.387-.958-.387-.511 0-.913.171-1.204.515-.292.343-.438.81-.438 1.402v3.436h-.97v-4.335c0-.625-.032-1.186-.096-1.69h.923l.095 1.053c.168-.381.418-.679.75-.885.33-.21.716-.311 1.155-.311.48 0 .871.094 1.175.286.303.193.527.487.67.888.184-.36.454-.647.81-.857a2.29 2.29 0 011.203-.317c1.334 0 2.001.793 2.001 2.382m6.038 2.452c.328-.412.492-.989.492-1.732 0-.727-.162-1.29-.486-1.69-.323-.398-.78-.598-1.371-.598-.6 0-1.059.2-1.378.599-.32.4-.48.968-.48 1.713 0 .743.16 1.316.48 1.72.32.403.779.605 1.378.605.583 0 1.038-.206 1.365-.617m.216-4.451c.407.255.723.617.947 1.082.223.47.335 1.014.335 1.637s-.112 1.172-.335 1.648c-.224.475-.54.844-.947 1.108a2.523 2.523 0 01-1.402.395c-.47 0-.882-.104-1.234-.311a2.013 2.013 0 01-.802-.887v1.114h-.97v-8.818h.97V220c.175-.391.44-.69.796-.898.356-.208.77-.312 1.24-.312.528 0 .995.128 1.402.384M86.5 220c-.315.303-.517.73-.605 1.283h3.51c-.047-.569-.213-.998-.496-1.296-.284-.293-.677-.443-1.18-.443-.504 0-.913.154-1.229.455zm3.78 1.916h-4.42c.007.77.185 1.348.533 1.738.347.391.852.587 1.515.587.703 0 1.35-.234 1.941-.705l.324.705a2.78 2.78 0 01-1.013.587 3.805 3.805 0 01-1.264.215c-.942 0-1.681-.275-2.216-.832-.536-.555-.803-1.316-.803-2.28 0-.618.12-1.16.36-1.638a2.664 2.664 0 011.006-1.106c.431-.266.922-.396 1.473-.396.8 0 1.426.26 1.881.783.456.525.683 1.244.683 2.163v.18zm4.829-3.054l-.024.885a1.986 1.986 0 00-.635-.094c-.583 0-1.017.18-1.3.545-.284.364-.425.803-.425 1.324v3.439h-.971v-4.337c0-.625-.032-1.186-.096-1.69h.923l.096 1.115c.151-.408.395-.721.73-.935a2.08 2.08 0 011.15-.323 2 2 0 01.552.071m5.768 5.668a3.468 3.468 0 01-1.372-1.516c-.32-.66-.479-1.438-.479-2.33 0-.895.16-1.668.48-2.319a3.481 3.481 0 011.371-1.504c.595-.353 1.296-.527 2.103-.527.59 0 1.132.088 1.623.27.491.18.917.45 1.276.809l-.371.752c-.408-.35-.809-.6-1.204-.752a3.634 3.634 0 00-1.312-.228c-.935 0-1.66.303-2.175.908-.515.61-.773 1.472-.773 2.59 0 1.127.256 1.995.767 2.606.511.611 1.238.917 2.18.917.48 0 .917-.076 1.313-.228.395-.154.796-.405 1.204-.755l.371.755c-.36.36-.785.63-1.276.809-.491.18-1.032.27-1.623.27-.807 0-1.508-.176-2.103-.528m10.286-.881c.32-.395.479-.97.479-1.731 0-.733-.164-1.304-.491-1.708-.328-.403-.783-.603-1.366-.603-.591 0-1.05.2-1.378.603-.328.404-.491.975-.491 1.708 0 .76.161 1.336.485 1.73.323.396.785.594 1.384.594.599 0 1.058-.198 1.378-.593m-2.876 1.012a2.57 2.57 0 01-1-1.09c-.236-.47-.354-1.022-.354-1.653s.118-1.183.354-1.652a2.576 2.576 0 011-1.092c.431-.256.93-.383 1.498-.383.567 0 1.066.127 1.497.383a2.57 2.57 0 011 1.092c.236.47.354 1.02.354 1.652 0 .63-.118 1.184-.353 1.653a2.57 2.57 0 01-1 1.09c-.432.258-.931.384-1.498.384s-1.067-.126-1.498-.384m11.035-3.487v3.786h-.97v-3.738c0-.559-.112-.968-.335-1.228-.224-.26-.576-.387-1.055-.387-.559 0-1.006.171-1.342.515-.335.343-.503.807-.503 1.39v3.448h-.97v-4.335c0-.625-.032-1.186-.096-1.69h.922l.096 1.079c.184-.391.46-.695.827-.905a2.454 2.454 0 011.258-.317c1.446 0 2.168.793 2.168 2.382m3.128-1.473v3.294c0 .449.091.763.275.942.184.18.443.27.779.27.223 0 .439-.038.647-.108v.827c-.248.078-.527.12-.839.12-.575 0-1.024-.162-1.348-.486-.323-.323-.485-.8-.485-1.431V219.7h-1.174v-.767h1.174v-1.545l.97-.348v1.893h1.726v.767h-1.726zm4.163.3c-.316.303-.517.73-.605 1.283h3.51c-.048-.569-.213-.998-.497-1.296-.284-.293-.677-.443-1.18-.443-.503 0-.913.154-1.228.455zm3.78 1.916h-4.421c.008.77.185 1.348.533 1.738.347.391.853.587 1.516.587.702 0 1.35-.234 1.94-.705l.324.705a2.78 2.78 0 01-1.012.587 3.805 3.805 0 01-1.264.215c-.943 0-1.682-.275-2.217-.832-.535-.555-.803-1.316-.803-2.28 0-.618.12-1.16.36-1.638.24-.475.575-.843 1.006-1.106a2.751 2.751 0 011.474-.396c.799 0 1.426.26 1.88.783.456.525.684 1.244.684 2.163v.18zm6.65-.743v3.786h-.971v-3.738c0-.559-.112-.968-.335-1.228-.224-.26-.576-.387-1.055-.387-.559 0-1.006.171-1.342.515-.335.343-.503.807-.503 1.39v3.448h-.97v-4.335c0-.625-.032-1.186-.096-1.69h.922l.096 1.079c.184-.391.46-.695.827-.905a2.454 2.454 0 011.258-.317c1.446 0 2.169.793 2.169 2.382m3.127-1.473v3.294c0 .449.091.763.275.942.184.18.443.27.779.27.223 0 .439-.038.647-.108v.827c-.248.078-.527.12-.839.12-.575 0-1.024-.162-1.348-.486-.323-.323-.485-.8-.485-1.431V219.7h-1.174v-.767h1.174v-1.545l.97-.348v1.893h1.726v.767h-1.726zm-83.138 25.482h.983v8.53h-.983v-3.915h-5.116v3.916h-.97v-8.53h.97v3.785h5.116zm4.236 3.571c-.316.303-.517.73-.605 1.284h3.51c-.048-.57-.213-.999-.497-1.296-.284-.294-.677-.443-1.18-.443-.503 0-.913.153-1.228.455zm3.78 1.917h-4.421c.008.769.186 1.348.533 1.737.347.391.853.587 1.516.587.702 0 1.35-.234 1.94-.705l.324.705a2.78 2.78 0 01-1.012.587 3.805 3.805 0 01-1.264.216c-.943 0-1.682-.276-2.217-.833-.535-.555-.803-1.316-.803-2.28 0-.617.12-1.16.36-1.638.24-.475.575-.842 1.006-1.106a2.76 2.76 0 011.474-.395c.799 0 1.426.26 1.88.782.456.526.684 1.245.684 2.163v.18zm1.472 3.043h.971v-8.818h-.97zm7.052-1.318c.323-.399.485-.964.485-1.7s-.164-1.309-.491-1.72c-.328-.411-.783-.615-1.366-.615-.6 0-1.059.198-1.378.597-.32.401-.48.97-.48 1.713 0 .743.16 1.316.48 1.72.32.403.779.605 1.378.605.59 0 1.048-.2 1.372-.6m.21-4.454c.407.261.722.63.946 1.106.223.477.335 1.024.335 1.647s-.112 1.168-.335 1.636a2.553 2.553 0 01-.94 1.084c-.404.257-.873.383-1.409.383-.47 0-.882-.104-1.234-.311a2.019 2.019 0 01-.802-.885v3.7h-.97v-6.925c0-.623-.033-1.184-.097-1.687h.923l.096 1.162c.167-.415.433-.739.796-.966.364-.228.793-.342 1.288-.342.528 0 .995.132 1.402.398m7.566 5.342a3.468 3.468 0 01-1.372-1.516c-.319-.659-.479-1.438-.479-2.33 0-.895.16-1.668.48-2.319a3.481 3.481 0 011.371-1.503c.595-.354 1.296-.527 2.103-.527.591 0 1.132.087 1.623.27.492.179.917.448 1.276.808l-.371.753c-.407-.35-.809-.601-1.204-.753a3.634 3.634 0 00-1.312-.228c-.935 0-1.66.304-2.175.909-.515.609-.772 1.472-.772 2.59 0 1.126.255 1.995.766 2.606.512.61 1.238.916 2.18.916.48 0 .918-.076 1.313-.227.395-.154.797-.406 1.204-.755l.371.755a3.448 3.448 0 01-1.276.808 4.68 4.68 0 01-1.623.27c-.807 0-1.508-.176-2.103-.527m7.681-4.53c-.316.303-.518.73-.605 1.284h3.51c-.048-.57-.214-.999-.497-1.296-.284-.294-.677-.443-1.18-.443-.504 0-.913.153-1.228.455zm3.78 1.917h-4.421c.008.769.185 1.348.533 1.737.347.391.852.587 1.515.587.703 0 1.35-.234 1.941-.705l.324.705a2.78 2.78 0 01-1.013.587 3.805 3.805 0 01-1.264.216c-.942 0-1.681-.276-2.216-.833-.535-.555-.803-1.316-.803-2.28 0-.617.12-1.16.36-1.638.24-.475.575-.842 1.006-1.106a2.757 2.757 0 011.474-.395c.798 0 1.425.26 1.88.782.456.526.684 1.245.684 2.163v.18zm6.649-.743v3.786h-.97v-3.738c0-.56-.112-.969-.335-1.228-.224-.26-.576-.388-1.055-.388-.559 0-1.006.172-1.342.515-.335.344-.503.807-.503 1.39v3.449h-.97v-4.335c0-.625-.032-1.186-.096-1.69h.922l.096 1.079c.184-.392.46-.695.827-.905a2.454 2.454 0 011.258-.317c1.446 0 2.168.792 2.168 2.382m3.127-1.473v3.293c0 .45.092.763.276.943.184.18.443.27.779.27.223 0 .439-.039.647-.108v.826a2.79 2.79 0 01-.839.12c-.575 0-1.024-.162-1.348-.485-.323-.324-.485-.8-.485-1.432v-3.427h-1.174v-.766h1.174v-1.546l.97-.347v1.893h1.726v.766h-1.726zm4.164.299c-.316.303-.518.73-.605 1.284h3.51c-.048-.57-.214-.999-.497-1.296-.284-.294-.677-.443-1.18-.443-.504 0-.913.153-1.228.455zm3.78 1.917h-4.421c.008.769.185 1.348.533 1.737.347.391.852.587 1.515.587.703 0 1.35-.234 1.941-.705l.324.705a2.78 2.78 0 01-1.013.587 3.805 3.805 0 01-1.264.216c-.942 0-1.681-.276-2.216-.833-.535-.555-.803-1.316-.803-2.28 0-.617.12-1.16.36-1.638.24-.475.575-.842 1.006-1.106a2.757 2.757 0 011.474-.395c.798 0 1.425.26 1.88.782.456.526.684 1.245.684 2.163v.18zm4.828-3.054l-.024.884a1.986 1.986 0 00-.635-.093c-.583 0-1.016.18-1.3.545-.283.363-.425.802-.425 1.324v3.438h-.97v-4.337c0-.625-.032-1.186-.096-1.69h.922l.096 1.115c.152-.407.395-.72.73-.935a2.08 2.08 0 011.151-.323 2 2 0 01.551.072m133.012 19.66v-8.53h5.271v.826h-4.3v2.96h4.06v.826h-4.06v3.918zm7.77-4.961c-.316.304-.518.731-.605 1.284h3.51c-.048-.569-.214-.998-.497-1.296-.284-.293-.677-.443-1.18-.443-.504 0-.913.154-1.228.455zm3.78 1.917h-4.421c.008.767.185 1.346.533 1.738.347.391.852.587 1.515.587.703 0 1.35-.236 1.941-.705l.324.705a2.809 2.809 0 01-1.013.587 3.805 3.805 0 01-1.264.215c-.942 0-1.681-.277-2.216-.832-.535-.555-.803-1.316-.803-2.283 0-.615.12-1.16.36-1.635.24-.475.575-.843 1.006-1.108a2.768 2.768 0 011.474-.394c.798 0 1.425.26 1.88.783.456.523.684 1.244.684 2.163v.18zm5.667 1.708c.327-.41.49-.988.49-1.73 0-.728-.16-1.293-.484-1.69-.324-.4-.781-.601-1.372-.601-.6 0-1.059.202-1.378.6-.32.398-.48.97-.48 1.714 0 .743.16 1.316.48 1.72.32.403.779.604 1.378.604.583 0 1.038-.205 1.366-.617m.215-4.45c.408.253.723.617.947 1.082.223.47.335 1.012.335 1.637 0 .621-.112 1.172-.335 1.648-.224.473-.54.844-.947 1.108a2.523 2.523 0 01-1.401.395c-.472 0-.883-.104-1.235-.311a2.008 2.008 0 01-.802-.889v1.116h-.97v-8.818h.97v3.858c.175-.393.441-.69.796-.9.356-.206.77-.31 1.24-.31.528 0 .995.128 1.402.384m6.135-.314l-.024.887a1.93 1.93 0 00-.635-.096c-.583 0-1.016.182-1.3.547-.283.364-.425.803-.425 1.322v3.44h-.97v-4.336c0-.625-.033-1.189-.097-1.692h.923l.096 1.117a1.84 1.84 0 01.73-.937 2.095 2.095 0 011.15-.321c.2 0 .384.023.552.07m6.026.072v6.028h-.946v-1.044c-.192.37-.46.647-.803.838-.343.194-.73.29-1.162.29-.71 0-1.25-.202-1.617-.599-.368-.4-.551-.99-.551-1.775v-3.738h.97v3.714c0 .545.112.942.335 1.198.224.256.564.383 1.019.383.535 0 .966-.173 1.294-.519.327-.347.491-.807.491-1.374v-3.402h.97zm5.739 4.703c.32-.403.479-.976.479-1.72 0-.742-.16-1.315-.48-1.713-.319-.399-.774-.6-1.365-.6s-1.053.207-1.384.618c-.332.412-.497.985-.497 1.718 0 .737.163 1.304.491 1.703.327.4.79.6 1.39.6.59 0 1.046-.203 1.366-.606zm1.437-4.703v6.027h-.958v-1.09a1.91 1.91 0 01-.797.868c-.355.204-.769.306-1.24.306-.535 0-1.004-.128-1.408-.384a2.514 2.514 0 01-.934-1.084c-.22-.467-.33-1.012-.33-1.637 0-.621.112-1.172.336-1.646a2.62 2.62 0 01.94-1.108 2.494 2.494 0 011.396-.395c.471 0 .883.104 1.234.311.352.208.62.5.803.875v-1.043h.958zm7.178 0l-2.816 6.577c-.295.69-.667 1.192-1.114 1.512-.447.317-.998.537-1.653.657l-.204-.755c.567-.128.996-.295 1.288-.51.291-.209.533-.534.725-.974l.24-.54-2.553-5.967h1.019l2.037 4.972 2.06-4.972h.97zm33.45-2.504h.815v8.53h-.91v-6.336l-2.769 6.336h-.694l-2.792-6.29.012 6.29h-.91v-8.53h.814l3.235 7.358zm6.673 7.207c.32-.403.48-.976.48-1.72 0-.742-.16-1.315-.48-1.713-.32-.399-.775-.6-1.366-.6-.59 0-1.052.207-1.384.618-.331.412-.497.985-.497 1.718 0 .737.164 1.304.491 1.703.328.4.791.6 1.39.6.591 0 1.047-.203 1.366-.606zm1.438-4.703v6.027h-.959v-1.09a1.91 1.91 0 01-.796.868c-.356.204-.77.306-1.24.306-.536 0-1.005-.128-1.408-.384a2.514 2.514 0 01-.935-1.084c-.22-.467-.33-1.012-.33-1.637 0-.621.113-1.172.336-1.646a2.62 2.62 0 01.94-1.108 2.494 2.494 0 011.396-.395c.472 0 .883.104 1.235.311.351.208.619.5.802.875v-1.043h.959zm5.236-.073l-.024.887a1.93 1.93 0 00-.635-.096c-.583 0-1.016.182-1.3.547-.283.364-.425.803-.425 1.322v3.44h-.97v-4.336c0-.625-.033-1.189-.096-1.692h.922l.096 1.117a1.84 1.84 0 01.73-.937 2.095 2.095 0 011.15-.321c.2 0 .384.023.552.07m1.863 5.799a2.567 2.567 0 01-1.006-1.084c-.236-.466-.354-1.013-.354-1.636s.12-1.172.36-1.647c.24-.476.581-.843 1.024-1.109.444-.263.96-.393 1.552-.393.407 0 .8.068 1.18.208.38.14.693.333.94.58l-.323.72a3.538 3.538 0 00-.88-.527 2.349 2.349 0 00-.87-.168c-.614 0-1.097.205-1.449.617-.351.411-.527.986-.527 1.72 0 .726.174 1.291.521 1.694.348.404.833.606 1.456.606.295 0 .585-.054.868-.168.284-.112.577-.286.881-.527l.323.718c-.255.24-.577.432-.964.57a3.52 3.52 0 01-1.204.21c-.583 0-1.092-.129-1.528-.384m10.106-3.486v3.785h-.97v-3.738c0-.559-.112-.968-.336-1.228-.223-.26-.575-.39-1.054-.39-.559 0-1.006.174-1.342.518-.335.343-.503.805-.503 1.388v3.45h-.97v-8.818h.97v3.774c.192-.365.465-.647.82-.839a2.52 2.52 0 011.217-.285c1.446 0 2.168.793 2.168 2.382m28.442.781h3.762l-1.881-4.386-1.881 4.385zm5.044 3.007l-.935-2.195h-4.457l-.946 2.195h-1.019l3.75-8.533h.863l3.75 8.533h-1.006zm6.355-1.319c.323-.4.485-.966.485-1.703 0-.733-.164-1.306-.491-1.718-.328-.41-.783-.617-1.366-.617-.6 0-1.058.2-1.378.6-.32.399-.48.97-.48 1.713 0 .743.16 1.316.48 1.72.32.402.779.604 1.378.604.591 0 1.048-.2 1.372-.599m.21-4.457c.407.264.722.633.946 1.108.224.476.335 1.025.335 1.646 0 .625-.111 1.17-.335 1.637a2.553 2.553 0 01-.94 1.084c-.404.256-.873.384-1.408.384-.472 0-.883-.104-1.234-.312a2.013 2.013 0 01-.803-.886v3.702h-.97v-6.925c0-.623-.032-1.186-.096-1.69h.922l.096 1.163a1.97 1.97 0 01.797-.965c.363-.227.792-.341 1.288-.341.527 0 .994.132 1.401.395m6.135-.325l-.024.887a1.93 1.93 0 00-.635-.096c-.583 0-1.016.182-1.3.547-.283.364-.425.803-.425 1.322v3.44h-.97v-4.336c0-.625-.032-1.189-.096-1.692h.922l.096 1.117a1.84 1.84 0 01.73-.937 2.095 2.095 0 011.151-.321c.2 0 .383.023.551.07m.983 6.101h.97v-6.029h-.97v6.029zm-.096-7.478h1.186v-1.103h-1.186v1.103zm2.945 7.476h.97v-8.818h-.97zm35.236-8.531h.815v8.53h-.91v-6.336l-2.768 6.336h-.695l-2.792-6.29.012 6.29h-.91v-8.53h.814l3.235 7.358zm6.672 7.207c.32-.403.48-.976.48-1.72 0-.742-.16-1.315-.48-1.713-.32-.399-.774-.6-1.365-.6-.592 0-1.053.207-1.384.618-.332.412-.498.985-.498 1.718 0 .737.164 1.304.492 1.703.327.4.79.6 1.39.6.59 0 1.046-.203 1.365-.606zm1.438-4.703v6.027h-.958v-1.09a1.91 1.91 0 01-.797.868c-.356.204-.769.306-1.24.306-.535 0-1.005-.128-1.408-.384a2.514 2.514 0 01-.934-1.084c-.22-.467-.33-1.012-.33-1.637 0-.621.112-1.172.335-1.646a2.62 2.62 0 01.941-1.108 2.494 2.494 0 011.396-.395c.471 0 .882.104 1.234.311.351.208.619.5.803.875v-1.043h.958zm7.178 0l-2.816 6.577c-.295.69-.667 1.192-1.114 1.512-.447.317-.998.537-1.653.657l-.204-.755c.567-.128.996-.295 1.288-.51.291-.209.533-.534.725-.974l.24-.54-2.553-5.967h1.019l2.037 4.972 2.06-4.972h.97zm25.088 7.308c.359.064.646.096.862.096.407 0 .693-.114.856-.341.164-.228.246-.617.246-1.168v-8.4h.982v8.412c0 .83-.15 1.43-.449 1.797-.3.367-.793.553-1.48.553-.271 0-.61-.034-1.018-.098v-.85zm9.98-7.308v6.028h-.947v-1.044c-.192.37-.46.647-.803.838-.343.194-.73.29-1.162.29-.71 0-1.25-.202-1.618-.599-.367-.4-.55-.99-.55-1.775v-3.738h.97v3.714c0 .545.112.942.335 1.198.224.256.563.383 1.019.383.535 0 .966-.173 1.294-.519.327-.347.49-.807.49-1.374v-3.402h.971zm7.044 2.241v3.785h-.97v-3.738c0-.559-.112-.968-.336-1.228-.224-.26-.575-.39-1.054-.39-.56 0-1.007.174-1.342.518-.336.343-.503.805-.503 1.388v3.45h-.97v-4.335c0-.625-.033-1.188-.097-1.691h.923l.096 1.078c.183-.39.459-.693.826-.905a2.473 2.473 0 011.258-.315c1.446 0 2.169.793 2.169 2.382m3.096-1.174c-.315.304-.517.731-.605 1.284h3.51c-.047-.569-.213-.998-.496-1.296-.284-.293-.677-.443-1.18-.443-.504 0-.913.154-1.228.455zm3.78 1.917h-4.42c.008.767.185 1.346.533 1.738.347.391.852.587 1.515.587.703 0 1.35-.236 1.941-.705l.324.705a2.809 2.809 0 01-1.013.587 3.805 3.805 0 01-1.264.215c-.942 0-1.681-.277-2.216-.832-.535-.555-.803-1.316-.803-2.283 0-.615.12-1.16.36-1.635.24-.475.575-.843 1.006-1.108a2.768 2.768 0 011.474-.394c.798 0 1.425.26 1.88.783.456.523.684 1.244.684 2.163v.18zm25.496 4.325c.36.064.647.096.862.096.408 0 .693-.114.857-.341.164-.228.246-.617.246-1.168v-8.4h.982v8.412c0 .83-.15 1.43-.45 1.797-.299.367-.792.553-1.479.553-.272 0-.611-.034-1.018-.098v-.85zm9.98-7.308v6.028h-.947v-1.044c-.191.37-.459.647-.802.838-.344.194-.731.29-1.162.29-.711 0-1.25-.202-1.618-.599-.367-.4-.551-.99-.551-1.775v-3.738h.97v3.714c0 .545.112.942.336 1.198.224.256.563.383 1.018.383.535 0 .967-.173 1.294-.519.328-.347.491-.807.491-1.374v-3.402h.97zm1.868 6.027h.97v-8.818h-.97zm8.147-6.027l-2.815 6.577c-.296.69-.667 1.192-1.114 1.512-.448.317-.999.537-1.654.657l-.203-.755c.567-.128.996-.295 1.288-.51.291-.209.533-.534.724-.974l.24-.54-2.552-5.967h1.018l2.037 4.972 2.061-4.972h.97z" fill="#CCC" mask="url(#d)"/><path d="M280.046 313.352v1.677h-7.636v-1.517l3.866-4.17c.457-.499.793-.958 1.007-1.372a2.69 2.69 0 00.32-1.232c0-.519-.153-.916-.456-1.182-.304-.265-.737-.4-1.302-.4-1 0-2.029.396-3.083 1.183l-.687-1.502c.447-.405 1.022-.724 1.725-.966a6.603 6.603 0 012.125-.36c1.138 0 2.04.282 2.707.84.665.558.999 1.313.999 2.262 0 .647-.142 1.26-.423 1.837-.284.573-.753 1.218-1.414 1.93l-2.796 2.972h5.048zm7.229-.807c.335-.675.503-1.748.503-3.217 0-1.448-.168-2.506-.503-3.171-.336-.667-.87-.999-1.605-.999s-1.27.332-1.606.999c-.335.665-.503 1.723-.503 3.17 0 1.47.168 2.543.503 3.218.336.679.87 1.016 1.606 1.016.734 0 1.27-.337 1.605-1.016m-4.697 1.134c-.708-.995-1.062-2.444-1.062-4.351 0-1.875.354-3.309 1.062-4.3.707-.99 1.74-1.485 3.092-1.485 1.351 0 2.382.493 3.09 1.478.71.988 1.063 2.422 1.063 4.307 0 1.895-.353 3.342-1.062 4.343-.71 1.002-1.74 1.501-3.091 1.501-1.352 0-2.385-.497-3.092-1.493m14.209-.327h2.476v1.677h-7.012v-1.677h2.492v-7.332l-2.317 1.39v-1.838l3.163-1.915h1.198zm9.249-4.616c.374-.383.56-.883.56-1.502s-.186-1.12-.56-1.511c-.373-.386-.856-.581-1.453-.581-.597 0-1.073.191-1.43.573-.358.385-.535.89-.535 1.52 0 .628.177 1.13.535 1.51.357.376.833.566 1.43.566s1.08-.192 1.453-.575m1.766-3.762c.782.974 1.174 2.362 1.174 4.161 0 1.256-.188 2.337-.56 3.241-.373.907-.908 1.6-1.605 2.079-.697.48-1.525.719-2.484.719-.68 0-1.344-.114-1.989-.344a4.88 4.88 0 01-1.67-.982l.688-1.502c1.012.787 1.975 1.18 2.891 1.18.84 0 1.494-.357 1.957-1.076.463-.719.705-1.751.727-3.09a2.75 2.75 0 01-1.11 1.165c-.496.288-1.057.432-1.686.432-.67 0-1.27-.156-1.797-.464a3.24 3.24 0 01-1.238-1.296c-.3-.553-.447-1.184-.447-1.899 0-.725.162-1.373.487-1.949a3.461 3.461 0 011.358-1.35c.581-.323 1.238-.487 1.973-.487 1.438 0 2.548.488 3.33 1.462" fill="#666" mask="url(#d)"/><path d="M394.436 313.93v1.1h-7.317v-.991l3.978-4.407c.533-.597.92-1.136 1.166-1.616a3.12 3.12 0 00.368-1.437c0-.627-.182-1.109-.544-1.444-.361-.336-.878-.503-1.55-.503-1.085 0-2.162.437-3.226 1.31l-.495-1.009c.447-.425 1.01-.767 1.693-1.022a5.825 5.825 0 012.06-.384c1.043 0 1.87.27 2.477.807.607.54.91 1.264.91 2.18 0 .652-.145 1.277-.439 1.878-.293.603-.78 1.276-1.462 2.02l-3.242 3.517h5.623zm7.738-1.025c.432-.767.647-1.959.647-3.578 0-1.608-.213-2.79-.639-3.544-.425-.757-1.096-1.137-2.012-1.137-.905 0-1.574.38-2.005 1.137-.432.754-.647 1.936-.647 3.544 0 1.607.215 2.798.647 3.57.431.773 1.1 1.158 2.005 1.158.904 0 1.573-.383 2.004-1.15m-4.968.775c-.677-.984-1.014-2.43-1.014-4.337 0-1.907.337-3.353 1.014-4.337.677-.985 1.664-1.478 2.964-1.478s2.288.493 2.963 1.478c.677.984 1.014 2.426 1.014 4.32 0 1.908-.337 3.356-1.014 4.346-.675.99-1.663 1.486-2.963 1.486s-2.287-.492-2.964-1.478m13.634.25h2.509v1.1h-6.342v-1.1h2.508v-8.643l-2.333 1.483v-1.262l2.908-1.853h.75zm6.67-5.808c.453.377 1.062.609 1.829.695.767-.086 1.376-.318 1.829-.695.453-.378.679-.873.679-1.478 0-.629-.22-1.124-.663-1.485-.441-.364-1.057-.544-1.845-.544-.789 0-1.404.18-1.845.544-.442.36-.663.856-.663 1.485 0 .605.225 1.1.679 1.478m3.89 5.39c.479-.362.718-.89.718-1.58 0-.63-.253-1.132-.758-1.512-.506-.375-1.18-.609-2.021-.693-.84.084-1.516.318-2.021.693-.505.38-.759.883-.759 1.512 0 .69.24 1.218.719 1.58.48.363 1.166.544 2.06.544.895 0 1.582-.181 2.061-.545m1.398-3.28c.412.495.615 1.09.615 1.779 0 .97-.367 1.733-1.102 2.294-.735.557-1.725.839-2.971.839s-2.237-.282-2.972-.839c-.734-.561-1.102-1.324-1.102-2.294 0-.69.21-1.286.631-1.79.422-.499.999-.846 1.733-1.038-.68-.202-1.202-.533-1.565-.998-.362-.464-.543-1.009-.543-1.638 0-.605.16-1.134.479-1.587.32-.453.769-.805 1.35-1.055.581-.251 1.244-.377 1.989-.377.747 0 1.41.126 1.989.377.58.25 1.03.602 1.35 1.055.319.453.479.982.479 1.587 0 .63-.184 1.174-.551 1.638-.368.465-.881.796-1.542.998.745.204 1.324.553 1.733 1.049m86.156 3.699v1.1h-7.316v-.991l3.977-4.407c.533-.597.92-1.136 1.166-1.616a3.12 3.12 0 00.368-1.437c0-.627-.182-1.109-.543-1.444-.362-.336-.879-.503-1.55-.503-1.086 0-2.162.437-3.227 1.31l-.495-1.009c.447-.425 1.01-.767 1.693-1.022a5.825 5.825 0 012.061-.384c1.042 0 1.87.27 2.476.807.607.54.91 1.264.91 2.18 0 .652-.145 1.277-.439 1.878-.293.603-.78 1.276-1.461 2.02l-3.243 3.517h5.623zm7.739-1.025c.431-.767.647-1.959.647-3.578 0-1.608-.214-2.79-.64-3.544-.425-.757-1.096-1.137-2.012-1.137-.905 0-1.574.38-2.005 1.137-.431.754-.647 1.936-.647 3.544 0 1.607.216 2.798.647 3.57.431.773 1.1 1.158 2.005 1.158.904 0 1.573-.383 2.005-1.15m-4.968.775c-.677-.984-1.015-2.43-1.015-4.337 0-1.907.338-3.353 1.015-4.337.677-.985 1.663-1.478 2.963-1.478s2.288.493 2.963 1.478c.677.984 1.015 2.426 1.015 4.32 0 1.908-.338 3.356-1.015 4.346-.675.99-1.663 1.486-2.963 1.486s-2.286-.492-2.963-1.478m13.634.25h2.508v1.1h-6.342v-1.1h2.508v-8.643l-2.332 1.483v-1.262l2.907-1.853h.75zm4.744-10.274h7.508v.975l-5.335 10.397h-1.406l5.304-10.27h-6.07z" fill="#CCC" mask="url(#d)"/><path d="M249.907 65.811a3.604 3.604 0 01-1.444-1.527c-.335-.66-.503-1.432-.503-2.319 0-.878.168-1.647.503-2.306a3.567 3.567 0 011.444-1.522c.627-.355 1.36-.533 2.199-.533.575 0 1.116.092 1.623.27.507.18.929.43 1.264.749l-.503 1.126a4.059 4.059 0 00-1.144-.677 3.489 3.489 0 00-1.216-.208c-.823 0-1.46.266-1.911.8-.452.536-.677 1.303-.677 2.301 0 1.007.223 1.78.67 2.319.448.539 1.087.808 1.918.808.431 0 .836-.07 1.216-.21.38-.14.76-.363 1.144-.676l.503 1.126c-.335.32-.757.57-1.264.749a4.826 4.826 0 01-1.623.271c-.839 0-1.572-.181-2.199-.54m12.059-3.282v3.712h-1.497v-3.643c0-.477-.092-.826-.276-1.046-.184-.222-.467-.33-.85-.33-.456 0-.823.146-1.103.436-.28.293-.42.677-.42 1.158v3.425h-1.485v-8.819h1.486v3.645c.208-.328.483-.581.827-.761.343-.18.726-.27 1.15-.27 1.445 0 2.168.831 2.168 2.492m5.499 2.121c.272-.344.408-.828.408-1.45 0-.64-.136-1.13-.408-1.474-.271-.344-.658-.515-1.162-.515-.495 0-.88.177-1.156.533-.275.355-.413.848-.413 1.48 0 .622.138 1.102.413 1.437.276.336.665.503 1.168.503.495 0 .879-.171 1.15-.515zm1.881-4.456v6.049h-1.473v-.97a1.944 1.944 0 01-.79.784 2.408 2.408 0 01-1.175.281c-.527 0-.995-.127-1.402-.383a2.532 2.532 0 01-.946-1.09c-.224-.472-.336-1.019-.336-1.642s.114-1.176.342-1.66a2.67 2.67 0 01.952-1.125 2.47 2.47 0 011.39-.402c.44 0 .83.094 1.174.282.344.188.607.45.79.785v-.909h1.474zm5.488-.05l-.012 1.366a2.085 2.085 0 00-.791-.158c-.511 0-.9.15-1.168.446-.268.295-.402.687-.402 1.174v3.27h-1.485v-4.336c0-.64-.032-1.21-.096-1.714h1.402l.12 1.067a1.79 1.79 0 01.718-.899 2.036 2.036 0 011.115-.311c.231 0 .43.031.599.095m3.294 1.174v2.708c0 .71.332 1.066.995 1.066.183 0 .383-.032.599-.095v1.188a2.87 2.87 0 01-.959.141c-.687 0-1.214-.191-1.581-.575-.368-.383-.551-.934-.551-1.653v-2.78h-1.163v-1.124h1.163v-1.476l1.497-.503v1.98h1.606v1.123h-1.606zm2.241 4.253l.42-1.052a3.638 3.638 0 002.216.717c.36 0 .637-.06.832-.18a.557.557 0 00.294-.503.529.529 0 00-.204-.437c-.136-.108-.367-.202-.695-.282l-1.006-.225c-1.102-.242-1.653-.805-1.653-1.692a1.6 1.6 0 01.311-.974c.208-.286.5-.505.875-.665.375-.16.81-.24 1.306-.24.43 0 .846.064 1.246.196.399.134.75.321 1.054.569l-.443 1.018c-.607-.447-1.23-.67-1.87-.67-.343 0-.61.063-.802.191a.601.601 0 00-.288.527c0 .176.058.318.174.42.116.103.314.191.593.263l1.03.23c.6.134 1.037.343 1.312.627.276.285.414.653.414 1.11 0 .557-.224 1.002-.671 1.328-.447.327-1.058.491-1.833.491-1.095 0-1.965-.255-2.612-.767m15.42-1.269c.44-.543.659-1.322.659-2.336 0-1.007-.22-1.781-.66-2.319-.438-.54-1.053-.808-1.844-.808-.79 0-1.406.267-1.845.802-.44.536-.66 1.31-.66 2.325 0 1.014.22 1.793.66 2.336.44.543 1.054.815 1.845.815.79 0 1.406-.272 1.845-.815m-3.996 1.516a3.572 3.572 0 01-1.414-1.522c-.331-.659-.497-1.436-.497-2.33 0-.887.164-1.66.491-2.319a3.498 3.498 0 011.408-1.515c.611-.352 1.332-.527 2.163-.527.83 0 1.551.175 2.162.527a3.462 3.462 0 011.402 1.515c.324.66.485 1.432.485 2.319 0 .894-.163 1.671-.49 2.33a3.558 3.558 0 01-1.403 1.522c-.607.355-1.325.533-2.156.533-.823 0-1.54-.178-2.15-.533m11.914-5.613h1.486l-2.648 6.036h-1.306l-2.612-6.036h1.57l1.737 4.337zm3.815 1.263c-.251.236-.413.578-.485 1.025h2.815c-.047-.455-.185-.799-.413-1.03-.227-.232-.541-.348-.94-.348-.4 0-.725.118-.977.353zm3.636 1.828h-4.169c.032.647.194 1.124.485 1.431.292.308.725.462 1.3.462.663 0 1.278-.216 1.845-.647l.432 1.03a3.373 3.373 0 01-1.06.557c-.42.138-.845.208-1.277.208-.99 0-1.769-.278-2.336-.837-.567-.559-.85-1.328-.85-2.3 0-.615.123-1.162.37-1.642a2.76 2.76 0 011.043-1.122 2.93 2.93 0 011.522-.4c.83 0 1.487.27 1.97.81.484.539.725 1.28.725 2.222v.228zm5.129-3.152l-.012 1.366a2.085 2.085 0 00-.791-.158c-.511 0-.9.15-1.168.446-.268.295-.402.687-.402 1.174v3.27h-1.485v-4.336c0-.64-.032-1.21-.096-1.714h1.402l.12 1.067c.151-.392.391-.691.718-.899a2.036 2.036 0 011.115-.311c.231 0 .431.031.599.095m5.439.061h1.486l-2.648 6.036h-1.306l-2.612-6.036h1.57l1.737 4.337zm2.265 6.036h1.486v-6.048h-1.486v6.048zm-.098-7.32h1.666v-1.472h-1.666v1.472zm4.883 2.547c-.252.236-.414.578-.485 1.025h2.815c-.048-.455-.186-.799-.413-1.03-.228-.232-.541-.348-.94-.348-.4 0-.726.118-.977.353zm3.636 1.828h-4.17c.033.647.194 1.124.486 1.431.291.308.725.462 1.3.462.663 0 1.278-.216 1.845-.647l.431 1.03a3.373 3.373 0 01-1.06.557c-.42.138-.845.208-1.276.208-.99 0-1.77-.278-2.336-.837-.567-.559-.851-1.328-.851-2.3 0-.615.124-1.162.371-1.642a2.76 2.76 0 011.043-1.122c.447-.265.954-.4 1.521-.4.831 0 1.488.27 1.971.81.483.539.725 1.28.725 2.222v.228zm9.335-3.103h1.461l-2.372 6.049h-1.306l-1.498-3.964-1.461 3.964h-1.318l-2.372-6.049h1.533l1.558 4.266 1.57-4.266h1.077l1.57 4.3z" fill="#666" mask="url(#d)"/><path d="M24.744 91.53a6.233 6.233 0 1112.467.002 6.233 6.233 0 01-12.467-.002m0 156.932a6.233 6.233 0 1112.467.002 6.233 6.233 0 01-12.467-.002m0-100.376a6.233 6.233 0 1112.467.002 6.233 6.233 0 01-12.467-.002m0 44.56a6.233 6.233 0 1112.467.002 6.233 6.233 0 01-12.467-.002m.404 33.423h12.045v-12.045H25.148zm0-99.411h12.045v-12.043H25.148z" fill-opacity=".208" fill="#00BAFF" mask="url(#d)"/><path fill="#00BAFF" mask="url(#d)" d="M268.8 324.164h43.385v-4.04h-43.386z"/><path fill="#F2F2F2" mask="url(#d)" d="M247.88 96.39h316.235v-1.15H247.88zm0 43.12h316.235v-1.15H247.88zm0 35.13h316.235v-1.15H247.88zm-1.186 69.077H562.93v-1.15H246.694zm0-34.28H562.93v-1.15H246.694z"/><path d="M280.1 159.066c-7.56 0-15.124-.796-22.545-2.412l.244-1.124c22.55 4.908 46.463 2.194 67.34-7.634 2.883-1.356 5.818-2.885 8.658-4.365 10.739-5.597 21.843-11.386 33.82-10.034 5.264.59 10.264 2.57 15.1 4.48 4.354 1.724 8.857 3.503 13.495 4.24 18.367 2.913 35.149-10.144 49.442-22.61L481.92 87.98c8.279-7.217 20.038-14.52 29.056-8.321 2.6 1.787 4.377 4.425 6.092 6.979.801 1.184 1.626 2.412 2.518 3.526 4.322 5.388 11.219 8.573 18.924 8.738 7.668.152 14.735-2.723 19.282-7.925l.867.757c-4.773 5.457-12.155 8.522-20.172 8.317-8.048-.172-15.264-3.51-19.797-9.17-.923-1.15-1.763-2.396-2.574-3.602-1.733-2.576-3.373-5.008-5.791-6.672-8.415-5.785-19.679 1.288-27.648 8.24l-36.265 31.625c-14.493 12.638-31.538 25.873-50.376 22.88-4.767-.755-9.33-2.56-13.74-4.303-4.765-1.887-9.693-3.834-14.807-4.41-11.634-1.307-22.575 4.394-33.158 9.91-2.851 1.485-5.799 3.02-8.702 4.388-14.234 6.7-29.867 10.128-45.528 10.128" fill="#19CCA3" mask="url(#d)"/><path fill="#F2F2F2" mask="url(#d)" d="M27.954 304.904h137.39v-14.213H27.955zm0 26.057h137.39v-14.213H27.955z"/><path fill="#CCC" mask="url(#d)" d="M413.933 227.612H245.511v-1.15h167.947L569.629 70.291l.813.815z"/><path d="M384.603 209.255c-15.97.002-32.19-2.934-47.08-10.75-2.113-1.106-4.251-2.336-6.318-3.52-7.8-4.477-15.857-9.133-24.675-8.676-6.24.297-12.073 3.153-17.712 5.915-1.937.946-3.936 1.926-5.93 2.791-11.612 5.038-24.905 6.793-37.428 4.942l.168-1.14c12.315 1.825 25.384.096 36.802-4.858 1.969-.855 3.958-1.827 5.88-2.77 5.748-2.811 11.688-5.719 18.166-6.03 9.144-.396 17.357 4.27 25.3 8.828 2.059 1.18 4.19 2.404 6.282 3.5 34.348 18.026 75.974 9.769 104.843-.331a688.33 688.33 0 004.786-1.704c9.12-3.276 18.549-6.663 28.353-7.318 10.871-.74 21.636 1.94 32.05 4.519 6.371 1.58 12.961 3.21 19.515 4.05 23.399 3.013 39.202-7.86 42.724-20.139l1.106.316c-4.832 16.85-25.78 23.299-43.976 20.965-6.62-.851-13.241-2.49-19.647-4.076-10.326-2.558-20.997-5.194-31.696-4.489-9.643.645-18.996 4.006-28.04 7.255-1.6.573-3.197 1.148-4.794 1.705-16.61 5.815-37.421 11.015-58.68 11.015" fill="url(#e)" mask="url(#d)"/><path d="M247.855 188.27l-.857-.769c9.643-10.755 19.615-21.877 32.165-29.677 14.028-8.722 29.428-11.492 42.24-7.598 6.999 2.129 13.23 6.175 19.26 10.088 3.342 2.173 6.8 4.42 10.345 6.306 18.175 9.68 40.376 10.64 59.39 2.574 4.407-1.869 8.684-4.231 12.82-6.515 3.67-2.027 7.466-4.122 11.358-5.881 7.404-3.345 15.933-5.85 26.84-7.89a218.838 218.838 0 01116.368 10l-.404 1.077a217.662 217.662 0 00-115.753-9.946c-10.815 2.02-19.26 4.5-26.578 7.81-3.85 1.736-7.624 3.821-11.274 5.836-4.161 2.298-8.467 4.675-12.928 6.568-19.327 8.203-41.901 7.226-60.38-2.618-3.589-1.911-7.067-4.17-10.432-6.356-5.96-3.87-12.123-7.872-18.966-9.952-12.504-3.8-27.55-1.073-41.299 7.472-12.41 7.716-22.326 18.776-31.915 29.471" fill="#00BAFF" mask="url(#d)"/></g></svg>