<svg width="1440" height="356" xmlns="http://www.w3.org/2000/svg" xmlns:xlink="http://www.w3.org/1999/xlink"><defs><linearGradient x1="-2.509%" y1="46.732%" x2="50%" y2="53.056%" id="b"><stop stop-color="#009FFD" offset="0%"/><stop stop-color="#2D399C" offset="100%"/></linearGradient><path id="a" d="M0 0h1440v356H0z"/></defs><g fill="none" fill-rule="evenodd"><mask id="c" fill="#fff"><use xlink:href="#a"/></mask><use fill="url(#b)" xlink:href="#a"/><g mask="url(#c)" fill="#FFF" fill-opacity=".149"><path d="M1133 92h100v145h-100zM425-24h100v145H425zm453 288h100v145H878zM183 120h100v145H183zm846 78h54v78h-54zM327 87h54v78h-54z"/></g><path fill="#CCC" opacity=".038" mask="url(#c)" d="M1384.781 356.146H571v-5.558h811.485L2137.073-404l3.927 3.937z"/><path stroke="#FFF" opacity=".071" mask="url(#c)" d="M0 145.146h632.781L778.174 0l58.62-25.51"/><path stroke="#FFF" opacity=".07" d="M0 239.146h813.781L1021.927 31"/><path stroke="#FFF" opacity=".07" d="M0 309.146h1111.781L1389.927 31"/></g></svg>