<svg xmlns="http://www.w3.org/2000/svg" xmlns:xlink="http://www.w3.org/1999/xlink" version="1.1" id="Layer_1" x="0" y="0" width="1000" height="200" xml:space="preserve"><style>.st1{fill:#21759b}</style><defs><path id="SVGID_1_" d="M-101-100h1460v400H-101z"/></defs><clipPath id="SVGID_2_"><use xlink:href="#SVGID_1_" overflow="visible"/></clipPath><g clip-path="url(#SVGID_2_)"><path class="st1" d="M100 6c18.8 0 37.1 5.6 52.6 16.1 15.1 10.2 27 24.6 34.1 41.4 12.4 29.3 9.1 62.8-8.7 89.1-10.2 15.1-24.6 27-41.4 34.1-29.3 12.4-62.8 9.1-89.1-8.7-15.1-10.2-27-24.6-34.1-41.4C1 107.3 4.3 73.8 22.1 47.5c10.2-15.1 24.6-27 41.4-34.1C75 8.5 87.5 6 100 6m0-6C44.8 0 0 44.8 0 100s44.8 100 100 100 100-44.8 100-100S155.2 0 100 0"/><path class="st1" d="M16.7 100c0 31.9 18.2 61.1 47 75L23.9 66.1c-4.8 10.7-7.2 22.2-7.2 33.9m139.6-4.2c0-10.3-3.7-17.4-6.9-23s-8.2-12.7-8.2-19.5 5.8-14.8 14-14.8h1.1C122.4 7.4 69.7 9.7 38.6 43.7c-3 3.3-5.8 6.8-8.2 10.5h5.4c8.7 0 22.2-1.1 22.2-1.1 4.5-.3 5 6.3.5 6.9 0 0-4.5.5-9.5.8l30.3 90.3 18.2-54.7-13-35.6c-4.5-.3-8.7-.8-8.7-.8-4.5-.3-4-7.1.5-6.9 0 0 13.8 1.1 21.9 1.1s22.2-1.1 22.2-1.1c4.5-.3 5 6.3.5 6.9 0 0-4.5.5-9.5.8l30.1 89.6 8.6-27.2c3.8-11.9 6.1-20.3 6.1-27.5m-54.8 11.5l-25 72.7c16.8 4.9 34.7 4.5 51.2-1.3l-.6-1.1-25.6-70.3zM173.1 60c.4 2.8.6 5.7.6 8.6 0 8.5-1.6 18-6.3 29.8L141.9 172c39-22.7 52.9-72.4 31.2-112m384.4 14.2h-39.7v4.2c12.4 0 14.4 2.7 14.4 18.4v28.4c0 15.8-2 18.7-14.4 18.7-9.6-1.3-16-6.4-24.9-16.2l-10.2-11.1c13.8-2.4 21.1-11.1 21.1-20.9 0-12.2-10.4-21.6-30-21.6h-39.1v4.2c12.4 0 14.4 2.7 14.4 18.4v28.4c0 15.8-2 18.7-14.4 18.7v4.2h44.2v-4c-12.4 0-14.4-2.9-14.4-18.7v-8h3.8l24.7 30.9h64.7c31.8 0 45.6-16.9 45.6-37.1s-13.8-36.9-45.6-36.9m-93.1 36.2V80.9h9.1c10 0 14.4 6.9 14.4 14.9s-4.4 14.7-14.4 14.7l-9.1-.1zm93.8 30.9h-1.6c-8 0-9.1-2-9.1-12.2V80.9h10.7c23.1 0 27.3 16.9 27.3 30s-4.2 30.4-27.3 30.4m-247.5-22.6l15.3-45.3c4.4-13.1 2.4-16.9-11.8-16.9V52h41.8v4.4c-14 0-17.3 3.3-22.9 19.6L308 152h-2.9l-22.7-69.6-23.1 69.6h-2.9l-24.7-76c-5.3-16.2-8.9-19.6-21.8-19.6V52h49.3v4.4c-13.1 0-16.7 3.1-12 16.9l14.9 45.3L284.7 52h4.2l22 66.7zm75.5 32.4c-24.4 0-44.4-18-44.4-40s20-39.8 44.4-39.8 44.4 18 44.4 39.8-20 40-44.4 40m0-72.9c-20.4 0-27.6 18.4-27.6 32.9S366 144 386.4 144s27.8-18.2 27.8-32.9-7.1-32.9-27.8-32.9M658 143.8v4.4h-50.9v-4.4c14.9 0 17.6-3.8 17.6-26V82.2c0-22.2-2.7-25.8-17.6-25.8V52h46c22.9 0 35.6 11.8 35.6 27.6s-12.7 27.3-35.6 27.3h-12.7v10.9c0 22.2 2.7 26 17.6 26M653.1 60h-12.7v38.7h12.7c12.4 0 18.2-8.7 18.2-19.1S665.5 60 653.1 60m188.2 67.3l-1.1 4c-2 7.3-4.4 10-20.2 10h-3.1c-11.6 0-13.6-2.7-13.6-18.4v-10.2c17.3 0 18.7 1.6 18.7 13.1h4.2V92.7H822c0 11.6-1.3 13.1-18.7 13.1V80.9h12.2c15.8 0 18.2 2.7 20.2 10l1.1 4.2h3.6l-1.6-20.9h-65.3v4.2c12.4 0 14.4 2.7 14.4 18.4v28.4c0 14.4-1.7 18.1-11.5 18.6-9.3-1.4-15.7-6.5-24.5-16.1l-10.2-11.1c13.8-2.4 21.1-11.1 21.1-20.9 0-12.2-10.4-21.6-30-21.6h-39v4.2c12.4 0 14.4 2.7 14.4 18.4v28.4c0 15.8-2 18.7-14.4 18.7v4.2H738v-4c-12.4 0-14.4-2.9-14.4-18.7v-8h3.8l24.6 30.9h91.3l1.3-20.9h-3.3zm-117.8-16.9V80.9h9.1c10 0 14.4 6.9 14.4 14.9s-4.4 14.7-14.4 14.7l-9.1-.1zm162.9 40.7c-8.9 0-16.7-4.7-20-7.6-1.9 2.2-3.1 4.8-3.6 7.6h-4.2v-30.7h4.4c1.8 14.7 12 23.3 25.1 23.3 7.1 0 12.9-4 12.9-10.7s-5.1-10.2-14.2-14.4l-12.7-6c-8.9-4.2-15.6-11.6-15.6-21.3s10-19.8 23.8-19.8c6.3-.1 12.4 2 17.3 5.8 1.1-.9 2.2-3.3 2.9-6h4.2v26.2H902c-1.6-10.4-7.3-19.1-19.1-19.1-6.2 0-12 3.6-12 9.1s4.7 8.9 15.3 13.8l12.2 6c10.7 5.1 14.9 13.3 14.9 20 0 14-12.2 23.8-27.1 23.8m67.4 0c-8.9 0-16.7-4.7-20-7.6-1.9 2.2-3.1 4.8-3.6 7.6h-4.2v-30.7h4.4c1.8 14.7 12 23.3 25.1 23.3 7.1 0 12.9-4 12.9-10.7s-5.1-10.2-14.2-14.4l-12.7-6c-8.9-4.2-15.6-11.6-15.6-21.3s10-19.8 23.8-19.8c6.3-.1 12.4 2 17.3 5.8 1.1-.9 2.2-3.3 2.9-6h4.2v26.2h-4.7c-1.6-10.4-7.3-19.1-19.1-19.1-6.2 0-12 3.6-12 9.1s4.7 8.9 15.3 13.8l12.2 6c10.7 5.1 14.9 13.3 14.9 20 0 14-12.2 23.8-27.1 23.8"/></g></svg>