<svg width="25" height="24" xmlns="http://www.w3.org/2000/svg" xmlns:xlink="http://www.w3.org/1999/xlink"><defs><path d="M2.571 4.375H21.43v-1.75H2.57v1.75zM22.764 17c.682 0 1.236.587 1.236 1.313v4.375c0 .725-.554 1.312-1.236 1.312h-8.528C13.554 24 13 23.413 13 22.687v-4.375c0-.725.554-1.312 1.236-1.312zm-.05-17C23.424 0 24 .587 24 1.313v4.375C24 6.412 23.424 7 22.714 7H1.286C.576 7 0 6.412 0 5.687V1.313C0 .588.576 0 1.286 0zM2.473 21.375h6.054v-1.75H2.473v1.75zM1.236 24h8.528c.682 0 1.236-.588 1.236-1.313v-4.375C11 17.587 10.446 17 9.764 17H1.236C.554 17 0 17.587 0 18.313v4.375C0 23.412.554 24 1.236 24zm1.335-10.625H21.43v-1.75H2.57v1.75zM1.286 16h21.428c.71 0 1.286-.588 1.286-1.313v-4.374C24 9.587 23.424 9 22.714 9H1.286C.576 9 0 9.587 0 10.313v4.374C0 15.412.576 16 1.286 16z" id="a"/></defs><use fill="#7C98B6" xlink:href="#a" transform="translate(.5)" fill-rule="evenodd"/></svg>