<svg width="14" height="13" xmlns="http://www.w3.org/2000/svg"><path d="M2.087 0h-1a1 1 0 00-1 1v1a1 1 0 001 1h1a1 1 0 001-1V1a1 1 0 00-1-1m0 5h-1a1 1 0 00-1 1v1a1 1 0 001 1h1a1 1 0 001-1V6a1 1 0 00-1-1m0 5h-1a1 1 0 00-1 1v1a1 1 0 001 1h1a1 1 0 001-1v-1a1 1 0 00-1-1m5-10h-1a1 1 0 00-1 1v1a1 1 0 001 1h1a1 1 0 001-1V1a1 1 0 00-1-1m0 5h-1a1 1 0 00-1 1v1a1 1 0 001 1h1a1 1 0 001-1V6a1 1 0 00-1-1m0 5h-1a1 1 0 00-1 1v1a1 1 0 001 1h1a1 1 0 001-1v-1a1 1 0 00-1-1m5-10h-1a1 1 0 00-1 1v1a1 1 0 001 1h1a1 1 0 001-1V1a1 1 0 00-1-1m0 5h-1a1 1 0 00-1 1v1a1 1 0 001 1h1a1 1 0 001-1V6a1 1 0 00-1-1m0 5h-1a1 1 0 00-1 1v1a1 1 0 001 1h1a1 1 0 001-1v-1a1 1 0 00-1-1" fill="#3F5D75" fill-rule="evenodd"/></svg>