<svg width="80" height="80" xmlns="http://www.w3.org/2000/svg" xmlns:xlink="http://www.w3.org/1999/xlink"><defs><path id="a" d="M.5.5h80v15H.5z"/><path id="c" d="M.5.5h80v15H.5z"/></defs><g fill="none" fill-rule="evenodd"><g transform="translate(62)" fill="#FFF" fill-rule="nonzero" stroke="#1F2E43" stroke-width="2"><path d="M5 13h4v53H5z"/><circle cx="7" cy="7" r="6"/><path d="M3 19h8v60H3z"/></g><g transform="translate(4)" fill="#FFF" fill-rule="nonzero" stroke="#1F2E43" stroke-width="2"><path d="M5 13h4v53H5z"/><circle cx="7" cy="7" r="6"/><path d="M3 19h8v60H3z"/></g><g transform="translate(-.5 25.5)"><mask id="b" fill="#fff"><use xlink:href="#a"/></mask><path stroke="#1F2E43" stroke-width="2" d="M1.5 1.5h78v13h-78z"/><path stroke="#1F2E43" stroke-width="2" stroke-linecap="square" mask="url(#b)" d="M-14.5 27.5l46-45m-60 45l46-45m-18 45l46-45m-32 45l46-45m-32 45l46-45m-32 45l46-45m-32 45l46-45"/></g><g transform="translate(-.5 45.5)"><mask id="d" fill="#fff"><use xlink:href="#c"/></mask><path stroke="#1F2E43" stroke-width="2" d="M1.5 1.5h78v13h-78z"/><path stroke="#1F2E43" stroke-width="2" stroke-linecap="square" mask="url(#d)" d="M-14.5 27.5l46-45m-60 45l46-45m-18 45l46-45m-32 45l46-45m-32 45l46-45m-32 45l46-45m-32 45l46-45"/></g></g></svg>