<svg width="80" height="52" xmlns="http://www.w3.org/2000/svg"><g stroke="#1F2E43" stroke-width="2" fill="none"><path d="M40 6c-9.113 0-17.363 3.694-23.335 9.665C10.694 21.637 7 29.887 7 39c0 2.05.187 4.055.544 6h64.912A33.21 33.21 0 0073 39c0-9.113-3.694-17.363-9.665-23.335C57.363 9.694 49.113 6 40 6z"/><path d="M19.821 12.886a33.202 33.202 0 00-4.5 4.205l3.178 5.494a2.99 2.99 0 001.802 1.26 2.99 2.99 0 002.199-.319 2.99 2.99 0 001.398-1.821 2.99 2.99 0 00-.3-2.277l-3.777-6.542zm40.358 0l-3.777 6.542a2.99 2.99 0 00-.3 2.277 2.99 2.99 0 001.398 1.821 2.99 2.99 0 002.276.3 2.99 2.99 0 001.822-1.398l3.081-5.336a33.202 33.202 0 00-4.5-4.206z"/><rect fill="#FFF" x="32" y="1" width="16" height="46" rx="8"/><rect fill="#FFF" x="1" y="41" width="78" height="10" rx="5"/></g></svg>