<svg width="80" height="80" xmlns="http://www.w3.org/2000/svg"><g fill="none"><path d="M40 42.03L4 50.785V73h72V50.786l-36-8.757z" stroke="#1F2E43" stroke-width="2" fill="#FFF"/><path stroke="#1F2E43" stroke-width="2" fill="#FFF" d="M4 53h72v22H4z"/><path stroke="#1F2E43" stroke-width="2" fill="#FFF" d="M1 49h78v7H1z"/><path fill="#1F2E43" d="M39 24h2v6h-2z"/><path d="M33.052 37.853a7 7 0 106.095-7.8" stroke="#1F2E43" stroke-width="2"/><path d="M51 1H29v12c0 3.038 1.231 5.788 3.222 7.778A10.966 10.966 0 0040 24c3.038 0 5.788-1.231 7.778-3.222A10.966 10.966 0 0051 13V1z" stroke="#1F2E43" stroke-width="2" fill="#FFF"/><path d="M51 1h-7.07L29.313 15.615a11.027 11.027 0 006.56 7.583L50.998 8.072V1zM1 72h78v7H1z" stroke="#1F2E43" stroke-width="2" fill="#FFF"/></g></svg>